<?xml version="1.0" standalone="no"?>
<!DOCTYPE svg PUBLIC "-//W3C//DTD SVG 1.1//EN" "http://www.w3.org/Graphics/SVG/1.1/DTD/svg11.dtd" >
<svg xmlns="http://www.w3.org/2000/svg">
<metadata></metadata>
<defs>
<font id="kelson_sansregular" horiz-adv-x="1101" >
<font-face units-per-em="2048" ascent="1536" descent="-512" />
<missing-glyph horiz-adv-x="514" />
<glyph horiz-adv-x="0" />
<glyph horiz-adv-x="0" />
<glyph unicode="&#xd;" horiz-adv-x="548" />
<glyph unicode=" "  horiz-adv-x="514" />
<glyph unicode="&#x09;" horiz-adv-x="514" />
<glyph unicode="&#xa0;" horiz-adv-x="514" />
<glyph unicode="!" horiz-adv-x="466" d="M123 100q0 55 37 85t81 30t80.5 -28.5t36.5 -86.5q0 -55 -36.5 -83.5t-80.5 -29.5t-81 26.5t-37 86.5zM143 340v1243h195v-1243h-195z" />
<glyph unicode="&#x22;" horiz-adv-x="542" d="M72 1581h161l-6 -375h-149zM332 1581h162l-7 -375h-149z" />
<glyph unicode="#" horiz-adv-x="1497" d="M66 446l43 172h251l68 275h-254l43 172h254l127 518h170l-127 -518h358l127 518h170l-127 -518h277l-43 -172h-277l-67 -275h276l-43 -172h-274l-111 -450h-172l111 450h-359l-110 -450h-170l110 450h-251zM530 618h359l67 275h-358z" />
<glyph unicode="$" horiz-adv-x="1130" d="M90 418h211q4 -49 18.5 -92t45 -75t82 -50.5t126.5 -18.5h39q80 0 130.5 18.5t78 54.5t37.5 89t10 123q0 96 -29.5 149.5t-79.5 80t-117 34.5t-140 14q-70 6 -140.5 28t-127 68t-92.5 121.5t-36 188.5q0 201 91.5 313.5t298.5 128.5v199h182v-203q178 -23 258 -125 t90 -274h-203q-4 49 -16 89t-40 69.5t-75 46t-121 16.5q-82 0 -133 -18.5t-79.5 -52t-39 -81t-10.5 -106.5q0 -82 33 -127t87 -66.5t125 -28.5t144 -16q68 -6 134.5 -29.5t119 -72.5t85 -131t32.5 -205q0 -238 -91 -353.5t-300 -129.5v-209h-182v211q-203 18 -299.5 126.5 t-106.5 295.5z" />
<glyph unicode="%" horiz-adv-x="1611" d="M61 1112v176q0 303 299 303q156 0 230 -72.5t74 -230.5v-176q0 -158 -74 -230.5t-230 -72.5q-154 0 -226.5 72.5t-72.5 230.5zM225 1120q0 -78 28.5 -120t106.5 -42q84 0 111 42t27 120v164q0 78 -27 118t-111 40q-78 0 -106.5 -40t-28.5 -118v-164zM473 -29l465 1624 h147l-460 -1624h-152zM928 303v176q0 303 299 303q156 0 229.5 -72.5t73.5 -230.5v-176q0 -158 -73.5 -230.5t-229.5 -72.5q-154 0 -226.5 72.5t-72.5 230.5zM1092 311q0 -78 28.5 -119.5t106.5 -41.5q84 0 110.5 41.5t26.5 119.5v164q0 78 -26.5 118t-110.5 40 q-78 0 -106.5 -40t-28.5 -118v-164z" />
<glyph unicode="&#x26;" horiz-adv-x="1251" d="M109 442q0 78 20.5 141.5t55 112.5t78.5 86t91 62q-90 59 -137 141t-47 189q0 94 30.5 172.5t86 136t132.5 88.5t169 31q197 0 307.5 -105.5t97.5 -308.5h-178q12 236 -227 235q-94 0 -161 -65.5t-67 -181.5q0 -47 17.5 -90.5t47.5 -78t72 -55t91 -20.5h604v-172h-191 v-338q0 -45 7.5 -88t25 -77t48 -55.5t79.5 -21.5l-4 -203q-98 0 -157.5 34t-98.5 130q-53 -76 -128 -121t-187 -45q-106 0 -194.5 26t-152 81t-98.5 144t-32 216zM301 434q0 -86 28.5 -140t70.5 -85t92.5 -42t93.5 -11q49 0 90 21.5t70.5 58t47 86t17.5 102.5v336h-225 q-59 0 -110.5 -23.5t-90.5 -66.5t-61.5 -102.5t-22.5 -133.5z" />
<glyph unicode="'" horiz-adv-x="301" d="M72 1581h161l-6 -375h-149z" />
<glyph unicode="(" horiz-adv-x="528" d="M119 147v1053q0 199 85 306.5t277 107.5v-201q-53 0 -84.5 -15.5t-49 -43t-24 -67.5t-6.5 -89v-1048q0 -49 6.5 -89.5t24 -68t49 -43t84.5 -15.5v-200q-193 0 -277.5 107.5t-84.5 305.5z" />
<glyph unicode=")" horiz-adv-x="546" d="M63 -66q51 0 84 15.5t50.5 43t23.5 67.5t6 90v1048q0 49 -6 89t-23.5 67.5t-50 43t-84.5 15.5v201q193 0 278 -107.5t85 -306.5v-1053q0 -199 -85 -306t-278 -107v200z" />
<glyph unicode="*" horiz-adv-x="655" d="M59 1436l162 161l92 -151l45 -4l95 155l161 -159l-153 -95l-2 -43l155 -96l-161 -162l-95 154l-43 2l-94 -154l-160 160l150 94l2 43z" />
<glyph unicode="+" horiz-adv-x="927" d="M68 659v160h301v307h178v-307h303v-160h-303v-315h-178v315h-301z" />
<glyph unicode="," horiz-adv-x="387" d="M0 -211q43 33 67.5 66.5t37 73.5t15.5 85t3 101h170q0 -88 -12.5 -152.5t-40 -115t-71.5 -88.5t-108 -70z" />
<glyph unicode="-" horiz-adv-x="1009" d="M125 526v179h770v-179h-770z" />
<glyph unicode="." horiz-adv-x="411" d="M102 100q0 55 37 85t81 30t81 -28.5t37 -86.5q0 -55 -37 -83.5t-81 -29.5t-81 26.5t-37 86.5z" />
<glyph unicode="/" horiz-adv-x="761" d="M82 -2l428 1579h164l-428 -1579h-164z" />
<glyph unicode="0" horiz-adv-x="1056" d="M106 436v715q0 119 32 201t89.5 133t137 73.5t176.5 22.5q92 0 168.5 -22.5t132 -73.5t86 -133t30.5 -201v-715q0 -244 -99 -350t-318 -106q-115 0 -198 25.5t-135 80.5t-77 141t-25 209zM301 436q0 -82 13.5 -135t42 -85t73.5 -45t111 -13q53 0 95 13t70.5 45t43 85 t14.5 135v715q0 82 -14.5 132t-43 78t-70.5 38t-95 10q-55 0 -99.5 -10t-76 -38t-48 -78t-16.5 -132v-715z" />
<glyph unicode="1" horiz-adv-x="776" d="M49 0v166h256v1241h-201v174h396v-1415h243v-166h-694z" />
<glyph unicode="2" horiz-adv-x="1052" d="M100 1157q0 229 120 335.5t319 106.5q197 0 312.5 -98t115.5 -309q0 -106 -29 -178t-76 -121t-106.5 -82t-122 -62.5t-121.5 -62.5t-106.5 -80t-76 -117.5t-28.5 -175.5v-120h653v-193h-852v311q0 168 49.5 271.5t124 170t160.5 107.5t161 83t124 97.5t49 149.5 q0 117 -57.5 174t-182.5 57q-115 0 -175 -63.5t-60 -200.5h-195z" />
<glyph unicode="3" horiz-adv-x="1060" d="M82 446h190q0 -141 54.5 -202.5t183.5 -61.5q125 0 191.5 63.5t66.5 221.5q0 86 -21.5 143.5t-59.5 92t-88 49t-105 14.5h-113v172h113q43 2 90 21.5t87 54.5t65.5 82t25.5 102q0 109 -59.5 168t-176.5 59q-53 0 -97 -13t-75.5 -44t-50 -81t-18.5 -126h-185 q0 430 428 436q88 0 166 -24.5t134.5 -73.5t89 -125t32.5 -178q0 -45 -11 -95t-35.5 -97.5t-64.5 -87t-100 -64.5q59 -23 103.5 -54.5t73 -77.5t43 -107.5t14.5 -143.5q0 -223 -116 -350t-345 -127q-119 0 -201 27.5t-133 85t-73.5 142.5t-22.5 199z" />
<glyph unicode="4" horiz-adv-x="1120" d="M-4 500l684 1083h182v-1063h139v-178h-139v-342h-194v342h-643zM223 520h445v719z" />
<glyph unicode="5" horiz-adv-x="1062" d="M82 467h192q0 -156 63.5 -224.5t184.5 -68.5q55 0 103.5 15.5t84 51t56 97t20.5 154.5v55q0 88 -11 144.5t-39.5 89t-77 45t-121.5 12.5h-428v741h821v-182h-631v-375h242q123 0 208 -25.5t136 -83t73.5 -146.5t22.5 -216v-62q0 -133 -34 -228t-95 -156.5t-145 -90 t-185 -28.5q-98 0 -180 24.5t-139.5 80.5t-89 148.5t-31.5 227.5z" />
<glyph unicode="6" horiz-adv-x="1118" d="M113 436v291q0 141 38.5 268t106.5 235.5t157 197t187 155.5h258l4 -14q-68 -47 -136.5 -100.5t-129.5 -112t-110.5 -118.5t-79.5 -118q59 16 111 20.5t99 4.5q178 0 285 -100.5t107 -317.5v-291q0 -123 -24.5 -209t-79 -141t-139.5 -80.5t-206 -25.5t-207 25.5 t-139 80.5t-77.5 141t-24.5 209zM307 436q0 -82 15.5 -134t46 -83t78.5 -42t114 -11t114 11t78.5 42t46 83t15.5 134v291q0 74 -15.5 123t-46 76.5t-78.5 39t-114 11.5t-114 -11.5t-78.5 -39t-46 -76.5t-15.5 -123v-291z" />
<glyph unicode="7" horiz-adv-x="921" d="M27 1397v184h852v-47l-533 -1534h-211l492 1397h-600z" />
<glyph unicode="8" horiz-adv-x="1122" d="M82 471q0 92 12 159.5t35 116t56.5 81t76.5 57.5q-88 57 -118.5 140t-30.5 169q0 197 117.5 305.5t320.5 108.5q109 0 189.5 -33t135 -89t81 -133t26.5 -163q0 -195 -149 -297q45 -25 80.5 -57.5t58 -79.5t35 -114t12.5 -161q0 -260 -116.5 -379.5t-352.5 -119.5 q-240 0 -354.5 117.5t-114.5 371.5zM299 477q0 -74 11.5 -131t40 -97t77.5 -60.5t123 -20.5t123 20.5t77.5 60.5t40 97t11.5 131t-11.5 134.5t-40 102.5t-77.5 65.5t-123 25.5q-76 -2 -124 -25.5t-76.5 -66.5t-40 -102.5t-11.5 -133.5zM307 1188q0 -102 66.5 -157.5 t175.5 -55.5q129 0 181 57.5t52 155.5q0 106 -54 168.5t-177 62.5t-183.5 -62.5t-60.5 -168.5z" />
<glyph unicode="9" horiz-adv-x="1118" d="M113 856v291q0 123 24.5 209t77.5 141t139 81t207 26t206 -26t139.5 -81t79 -141t24.5 -209v-291q0 -141 -37 -268t-101.5 -235.5t-151.5 -196.5t-185 -156h-265l-4 14q68 45 134.5 99.5t127 113t108.5 117.5t79 119q-59 -16 -111.5 -20.5t-99.5 -4.5q-90 0 -162 24.5 t-123 76t-78.5 130.5t-27.5 187zM307 856q0 -74 15.5 -123t46 -76.5t79 -39t113.5 -11.5q66 0 114 11.5t78.5 39t46 76.5t15.5 123v291q0 82 -15.5 134t-46 83t-78.5 42t-114 11t-114 -11t-78.5 -42t-46 -83t-15.5 -134v-291z" />
<glyph unicode=":" horiz-adv-x="428" d="M102 100q0 55 37 85t81 30t81 -28.5t37 -86.5q0 -55 -37 -83.5t-81 -29.5t-81 26.5t-37 86.5zM102 870q0 55 37 85t81 30t81 -28.5t37 -86.5q0 -55 -37 -83.5t-81 -29.5t-81 26.5t-37 86.5z" />
<glyph unicode=";" horiz-adv-x="456" d="M29 -211q43 33 67.5 66.5t36.5 73.5t15.5 85t3.5 101h170q0 -88 -12.5 -152.5t-40 -115t-71.5 -88.5t-108 -70zM117 870q0 55 36.5 85t81 30t81 -28.5t36.5 -86.5q0 -55 -36.5 -83.5t-81 -29.5t-81 26.5t-36.5 86.5z" />
<glyph unicode="&#x3c;" horiz-adv-x="786" d="M102 618v58l449 420l106 -115l-360 -334l367 -332l-113 -116z" />
<glyph unicode="=" horiz-adv-x="1167" d="M160 348v158h848v-158h-848zM160 780v158h848v-158h-848z" />
<glyph unicode="&#x3e;" horiz-adv-x="790" d="M127 309l367 338l-363 338l107 111l450 -420v-58l-450 -419z" />
<glyph unicode="?" horiz-adv-x="1003" d="M61 1190q0 92 13.5 171t58.5 137t129 91t225 33q203 0 308.5 -114.5t105.5 -360.5v-90q0 -119 -28.5 -192.5t-72.5 -123t-94.5 -83t-94.5 -73.5t-72.5 -95.5t-28.5 -147.5h-184q0 119 28.5 191.5t70.5 119.5t91 80t91 73t71 97.5t29 151.5v86q-2 84 -15.5 140t-41 91 t-70.5 50.5t-103 15.5q-66 0 -109.5 -11.5t-70.5 -40t-37 -75.5t-10 -121h-189zM313 100q0 55 37 85t81 30t81 -28.5t37 -86.5q0 -55 -37 -83.5t-81 -29.5t-81 26.5t-37 86.5z" />
<glyph unicode="@" horiz-adv-x="1398" d="M92 360v752q0 125 17.5 214t67.5 146.5t139.5 84t232.5 26.5h295q143 0 233 -26.5t141.5 -84t70 -146.5t18.5 -214v-395q0 -104 -23.5 -168t-62.5 -97.5t-88.5 -45t-100.5 -11.5q-84 0 -129 41t-63 84l-30.5 -30.5t-39 -30t-53.5 -21.5t-72 -8q-117 0 -183.5 64.5 t-66.5 189.5v246q0 61 24.5 108t64.5 79t93.5 48.5t108.5 16.5h289v-477q0 -29 1 -54.5t7 -45t20.5 -31t40.5 -11.5q45 0 56.5 36t11.5 101v418q0 76 -9 128t-37 84t-78 45.5t-132 13.5h-330q-78 0 -125 -15.5t-73.5 -46.5t-35.5 -75t-9 -99v-729q0 -55 9 -99t35.5 -75 t74 -46.5t124.5 -15.5h525v-190h-586q-121 0 -194.5 25.5t-113.5 72.5t-52.5 113.5t-12.5 150.5zM580 727q0 -59 26.5 -91t81.5 -32q102 0 103 139v267h-105q-53 0 -79.5 -30t-26.5 -83v-170z" />
<glyph unicode="A" horiz-adv-x="1073" d="M18 0l420 1575h199l418 -1575h-201l-80 293h-473l-80 -293h-203zM350 477h373l-82 336l-104 508l-107 -514z" />
<glyph unicode="B" horiz-adv-x="1173" d="M123 -2v1587h397q104 0 185 -29.5t134.5 -84t81 -129t27.5 -166.5q0 -98 -27.5 -168t-84.5 -129q129 -41 196.5 -142.5t67.5 -255.5q0 -252 -134.5 -367.5t-375.5 -115.5h-467zM317 934h183q70 0 118 21.5t77.5 56.5t42 78t12.5 86q0 117 -66 172t-164 55h-203v-469z M322 184h272q88 0 147.5 20.5t95 59.5t50 93.5t14.5 121.5q0 76 -21.5 127t-60.5 83t-94 45.5t-125 13.5h-278v-564z" />
<glyph unicode="C" horiz-adv-x="1208" d="M121 524v537q0 129 19.5 228.5t74.5 167t153.5 102t256.5 34.5q154 0 249 -28.5t149 -86t73.5 -143.5t21.5 -200h-190q0 72 -11.5 124t-43 85.5t-91 50t-157.5 16.5q-102 0 -164 -19.5t-93.5 -61.5t-41 -107.5t-9.5 -159.5v-541q0 -94 10.5 -159.5t43 -107.5t93 -61.5 t161.5 -19.5q100 0 160.5 13.5t93 48t43 94t10.5 153.5h186q0 -115 -12 -206t-61.5 -155.5t-148.5 -98t-271 -33.5t-272.5 34.5t-151.5 102.5t-65.5 168t-14.5 229z" />
<glyph unicode="D" horiz-adv-x="1230" d="M145 0v1579h480q158 0 255 -35t151 -101.5t72.5 -164.5t18.5 -227v-521q0 -129 -19.5 -228t-74.5 -166q-56 -68 -156 -103q-95 -33 -245 -33h-17h-465zM340 186h270q111 0 174.5 18.5t94 59.5t39 105.5t8.5 158.5v525q0 94 -8.5 158.5t-39 105.5t-94 59.5t-174.5 18.5 h-270v-1209z" />
<glyph unicode="E" horiz-adv-x="1067" d="M143 0v1581h797v-172h-602v-475h545v-182h-545v-570h653v-182h-848z" />
<glyph unicode="F" horiz-adv-x="1054" d="M141 -2v1581h848v-180h-653v-484h567v-182h-567v-735h-195z" />
<glyph unicode="G" horiz-adv-x="1251" d="M117 516v549q0 129 18.5 228.5t73.5 167t155.5 102t264.5 34.5q156 0 253 -25.5t152.5 -78.5t75.5 -137t25 -201h-191q-2 68 -14 118t-46 83t-95.5 49t-159.5 16t-159.5 -19.5t-96.5 -61.5t-47.5 -109.5t-12.5 -163.5v-553q0 -94 8.5 -159.5t39 -107.5t94 -61.5 t174.5 -19.5t174 13.5t94 48t39 94t8 153.5v215h-307v176h504v-391q0 -115 -13.5 -206t-64.5 -154.5t-153.5 -97t-280.5 -33.5q-164 0 -264.5 34.5t-155.5 102t-73.5 167t-18.5 228.5z" />
<glyph unicode="H" horiz-adv-x="1206" d="M143 -2v1577h199v-727h528v727h195v-1575h-195v662h-528v-664h-199z" />
<glyph unicode="I" horiz-adv-x="485" d="M143 -2v1577h199v-1577h-199z" />
<glyph unicode="J" horiz-adv-x="989" d="M16 473h185q0 -80 10 -137t37.5 -93t75 -52.5t120.5 -16.5q76 0 121 19.5t68.5 61.5t30 107.5t6.5 159.5v1059h196v-1057q0 -129 -15 -229t-61.5 -169t-130.5 -103.5t-219 -34.5q-131 0 -213 32.5t-129 95t-64.5 152.5t-17.5 205z" />
<glyph unicode="K" horiz-adv-x="1155" d="M133 0v1579h195v-696h75l471 696h230l-545 -791l588 -788h-240l-504 680h-75v-680h-195z" />
<glyph unicode="L" horiz-adv-x="1005" d="M143 0v1579h197v-1399h616v-180h-813z" />
<glyph unicode="M" horiz-adv-x="1288" d="M143 0v1581h224l278 -868l279 868h223v-1581h-195v743l29 433l-289 -887h-94l-289 887l29 -433v-743h-195z" />
<glyph unicode="N" horiz-adv-x="1167" d="M141 0v1579h185l534 -1208l-29 536v672h195v-1579h-182l-520 1135l12 -519v-616h-195z" />
<glyph unicode="O" horiz-adv-x="1271" d="M121 518v551q0 129 18.5 228.5t73.5 167t155.5 102.5t264.5 35q162 0 262 -35t155.5 -102.5t75 -167t19.5 -228.5v-551q0 -129 -19.5 -228.5t-75 -167t-155.5 -102t-262 -34.5q-164 0 -264.5 34.5t-155.5 102t-73.5 167t-18.5 228.5zM317 516q0 -94 8.5 -159.5t39 -107.5 t94 -61.5t174.5 -19.5t174 19.5t94 61.5t39 107.5t8 159.5v555q0 94 -8 160.5t-39 109.5t-94.5 62.5t-173.5 19.5q-111 0 -174.5 -19.5t-94 -62.5t-39 -109.5t-8.5 -160.5v-555z" />
<glyph unicode="P" d="M143 -2v1581l424 2q104 0 187.5 -22.5t141.5 -73.5t89 -133t31 -201v-172q0 -123 -24.5 -209t-79 -141.5t-139.5 -81t-206 -25.5h-229v-524h-195zM338 709h229q66 0 114 11t79 42t46 83t15 134v172q0 82 -15 129t-46 71.5t-79 33t-114 12.5h-229v-688z" />
<glyph unicode="Q" horiz-adv-x="1267" d="M121 528v539q0 129 18.5 228.5t73.5 167t155.5 102t264.5 34.5q162 0 262 -34.5t155.5 -102t75 -167t19.5 -228.5v-539q0 -104 -11.5 -188t-44 -148.5t-89 -108.5t-148.5 -65q4 -53 17.5 -96t44 -72.5t82.5 -41.5q28 -7 65 -7q30 0 65 4v-174q-39 -3 -74 -3 q-173 0 -270 73q-118 88 -125 295h-24q-164 0 -264.5 35t-155.5 102.5t-73.5 166.5t-18.5 228zM317 526q0 -94 8.5 -159.5t39 -107.5t94 -61.5t174.5 -19.5t174 19.5t94 61.5t39 107.5t8 159.5v543q0 94 -8 159.5t-39 107.5t-94.5 61.5t-173.5 19.5q-111 0 -174.5 -19.5 t-94 -61.5t-39 -107.5t-8.5 -159.5v-543z" />
<glyph unicode="R" horiz-adv-x="1105" d="M143 -2v1583l424 2q104 0 187.5 -22.5t141.5 -73.5t89 -134t31 -202v-111q0 -188 -65.5 -299.5t-229.5 -144.5l342 -596h-229l-318 584h-178v-586h-195zM338 770h229q66 0 114 11.5t79 42t46 82.5t15 134v111q0 82 -15 129t-46 71.5t-79 33t-114 12.5h-229v-627z" />
<glyph unicode="S" horiz-adv-x="1161" d="M90 418h211q4 -49 18.5 -92t45 -75t82 -50.5t126.5 -18.5h39q80 0 130.5 18.5t78 54.5t37.5 89t10 123q0 96 -29.5 149.5t-79.5 80t-117 34.5t-140 14q-70 6 -140.5 28t-127 68t-92.5 121.5t-36 188.5q0 219 108 331.5t357 112.5q117 0 201 -26.5t138.5 -78.5t82 -127 t33.5 -173h-203q-4 49 -16 89t-40 69.5t-75 46t-121 16.5q-82 0 -133 -18.5t-79.5 -52t-39 -81t-10.5 -106.5q0 -82 33 -127t87 -66.5t125 -28.5t144 -16q68 -6 134.5 -29.5t119 -72.5t85 -131t32.5 -205q0 -127 -25.5 -219t-80 -151.5t-140.5 -87t-209 -27.5h-39 q-244 0 -359.5 112.5t-125.5 313.5z" />
<glyph unicode="T" horiz-adv-x="882" d="M16 1391v180h850v-180h-327v-1391h-195v1391h-328z" />
<glyph unicode="U" horiz-adv-x="1232" d="M123 520v1059h196v-1061q0 -94 11.5 -159.5t44.5 -107.5t89 -61.5t148 -19.5t148.5 19.5t87.5 61.5t42 107.5t11 159.5v1063h197v-1061q0 -129 -23.5 -228t-79 -167t-148.5 -102.5t-235 -34.5q-141 0 -234 34.5t-150.5 102.5t-81 167t-23.5 228z" />
<glyph unicode="V" horiz-adv-x="1071" d="M18 1581h201l158 -588l160 -694l157 696l158 586h201l-428 -1583h-179z" />
<glyph unicode="W" horiz-adv-x="1671" d="M18 1581h201l152 -668l114 -589l271 1171h151l271 -1171l114 589l152 668h201l-377 -1583h-178l-134 530l-125 568l-124 -568l-134 -530h-178z" />
<glyph unicode="X" horiz-adv-x="999" d="M18 -2l347 797l-347 786h213l131 -299l138 -354l137 352l131 301h213l-346 -786l346 -797h-213l-86 197l-182 462l-181 -460l-88 -199h-213z" />
<glyph unicode="Y" horiz-adv-x="944" d="M-4 1581h211l127 -307l139 -393l139 393l127 307h211l-381 -919v-664h-194v664z" />
<glyph unicode="Z" horiz-adv-x="962" d="M29 0l630 1409h-546v172h823l-631 -1403h608v-178h-884z" />
<glyph unicode="[" horiz-adv-x="679" d="M186 -223v1810h426v-153h-254v-1502h254v-155h-426z" />
<glyph unicode="\" horiz-adv-x="761" d="M92 1577h164l428 -1579h-164z" />
<glyph unicode="]" horiz-adv-x="698" d="M86 -61h254v1501h-254v153h426v-1810h-426v156z" />
<glyph unicode="^" horiz-adv-x="1267" d="M111 895l442 692h125l448 -692l-2 -10h-184l-324 516l-325 -516h-178z" />
<glyph unicode="_" d="M72 -18h962v-164h-962v164z" />
<glyph unicode="`" horiz-adv-x="501" d="M57 1577v6h199l109 -260v-10h-162z" />
<glyph unicode="a" horiz-adv-x="1073" d="M90 276q-2 21 -2 41q0 55 16 105q22 66 70.5 118t120.5 87t164 47q72 10 144.5 13t144.5 5v117q0 51 -10.5 92t-36 69.5t-69.5 45t-112 16.5q-43 0 -77.5 -8t-59.5 -30.5t-38 -61.5t-13 -101h-191v23q-1 184 93 267q100 89 292 89q197 0 307.5 -92t110.5 -309v-809h-176 l-16 162q-16 -33 -45 -63.5t-69 -55.5t-88 -39t-104 -14q-102 0 -168.5 24.5t-106.5 65.5t-57.5 92t-23.5 104zM287 301q6 -72 60 -98.5t120 -26.5q80 0 134 27.5t87 76t47.5 112.5t16.5 138h-52t-69 -2t-77 -6t-79 -12q-99 -23 -149 -72q-40 -40 -41 -106q0 -15 2 -31z" />
<glyph unicode="b" horiz-adv-x="1122" d="M113 436v1176h196v-522q35 53 106.5 86.5t176.5 33.5q225 0 321.5 -118.5t96.5 -341.5v-314q0 -123 -24.5 -209t-79 -141t-139.5 -80.5t-206 -25.5t-207 25.5t-139 80.5t-77.5 141t-24.5 209zM307 436q0 -82 16.5 -134t48 -83t79 -42t110.5 -11t110.5 11t79 42t48 83 t16.5 134v309q0 84 -15.5 138.5t-46 85t-78.5 43t-114 12.5q-53 0 -99 -11.5t-80 -42t-53.5 -82.5t-19.5 -134z" />
<glyph unicode="c" horiz-adv-x="1081" d="M102 436v340q0 119 31 202t89.5 135t141 75.5t187.5 23.5q100 0 179 -19t135.5 -65.5t88 -124t35.5 -192.5l-184 -2q-4 70 -21.5 114t-50.5 68.5t-79 32.5t-103 8q-61 0 -108.5 -9t-80 -37t-49 -78t-16.5 -132v-340q0 -82 16.5 -134t48 -83t79.5 -42t110 -11 q61 0 108.5 8t79 35t48 73t18.5 124h184q-2 -119 -26.5 -200t-76.5 -131t-135 -72.5t-200 -22.5q-233 0 -341 106.5t-108 349.5z" />
<glyph unicode="d" horiz-adv-x="1159" d="M111 426v315q0 242 108.5 353.5t296.5 111.5q98 0 169 -19.5t120 -84.5v500h196v-1602h-163l-25 158q-29 -78 -110.5 -121t-186.5 -43q-90 0 -165 21.5t-128 72.5t-82.5 134t-29.5 204zM305 424q0 -74 15.5 -122t45 -75.5t74.5 -39t105 -11.5q61 2 110.5 18.5t82 52.5 t50 95t17.5 147v259q0 154 -57.5 212t-188.5 58t-192.5 -61.5t-61.5 -219.5v-313z" />
<glyph unicode="e" d="M109 426v350q0 117 30.5 199t88 133t139.5 73.5t184 22.5q100 0 182 -23.5t139.5 -73.5t89 -132t31.5 -199v-256h-692v-90q0 -80 14.5 -131t45 -80t77.5 -40t113 -11q129 0 189.5 44t60.5 136h188q0 -174 -102.5 -267t-335.5 -93q-121 0 -205 23.5t-136 75.5t-76.5 135 t-24.5 204zM301 690h506v86q0 80 -18.5 129t-52.5 78t-81 39t-104 10t-103.5 -10t-79 -38t-50 -78t-17.5 -130v-86z" />
<glyph unicode="f" horiz-adv-x="655" d="M121 -2v1155q0 123 34.5 211t99 142.5t153.5 75.5q60 15 127 15q34 0 71 -4v-178q-34 3 -64 3t-57 -3q-53 -6 -91 -35.5t-58.5 -84t-20.5 -142.5v-41h256v-180h-256v-934h-194z" />
<glyph unicode="g" horiz-adv-x="1089" d="M102 406v362q0 121 30 204t83 133t128 72.5t165 22.5q104 0 184 -43t109 -121l24 152h162v-1229q0 -123 -31.5 -209t-90 -141t-139.5 -81t-181 -26q-190 0 -299 80t-117 277h186q4 -53 22.5 -88t49.5 -55.5t71 -27.5t89 -7q57 0 105 13t82 45t52.5 85t18.5 135v197 q-10 -31 -35 -59.5t-61.5 -51t-85 -37t-105.5 -14.5q-209 0 -312.5 103.5t-103.5 308.5zM297 428q0 -141 58.5 -196.5t162.5 -55.5q63 0 113.5 14.5t86.5 49t55.5 96t19.5 153.5v232q-2 84 -19.5 140.5t-49.5 90t-79 49t-108 17.5q-59 0 -104.5 -11.5t-75 -39t-45 -75.5 t-15.5 -122v-342z" />
<glyph unicode="h" horiz-adv-x="1105" d="M113 0v1612h196v-522q33 47 101.5 84.5t171.5 37.5q115 0 193.5 -30.5t126.5 -89t69.5 -145.5t21.5 -197v-750h-194v745q0 82 -13.5 135.5t-43 85t-75.5 45t-112 13.5q-123 0 -183.5 -62.5t-62.5 -207.5l-2 -754h-194z" />
<glyph unicode="i" horiz-adv-x="491" d="M129 1473q0 55 37 84.5t81 29.5t81 -28.5t37 -85.5q0 -55 -37 -84t-81 -30h-3q-42 0 -78 27q-37 28 -37 87zM147 0v1190h195v-1190h-195z" />
<glyph unicode="j" horiz-adv-x="495" d="M2 -213q33 -4 62.5 -2t52 16.5t35 48t12.5 95.5v1243h190v-1243q0 -190 -84 -269q-70 -66 -209 -66q-28 0 -59 3v174zM141 1473q0 55 37 84.5t81 29.5t81 -28.5t37 -85.5q0 -55 -37 -84t-81 -30h-3q-42 0 -78 27q-37 28 -37 87z" />
<glyph unicode="k" horiz-adv-x="1044" d="M113 0v1581h194v-864h78l371 481h237l-438 -563l479 -635h-233l-406 532h-88v-532h-194z" />
<glyph unicode="l" horiz-adv-x="518" d="M143 311v1270h191v-1268q0 -72 28.5 -96t94.5 -24v-193q-88 0 -147.5 13.5t-96.5 48t-53.5 95t-16.5 154.5z" />
<glyph unicode="m" horiz-adv-x="1888" d="M152 0v1198h163l15 -131q57 84 137 114.5t170 30.5q117 0 201 -35.5t127 -111.5q59 72 148 109.5t218 37.5q98 0 174 -20.5t127 -71.5t78 -135t27 -211v-774h-197v778q0 133 -63.5 190.5t-169.5 57.5q-131 0 -198 -72.5t-67 -232.5v-721h-196v782q0 80 -16.5 129.5 t-47 76t-74.5 34.5t-100 8q-55 0 -102 -13t-83 -43t-55.5 -78t-19.5 -116v-780h-196z" />
<glyph unicode="n" horiz-adv-x="1193" d="M162 0v1198h174l12 -127q27 43 61.5 70.5t74.5 43t84 21.5t87 6q98 0 173 -22.5t125.5 -73.5t75 -134t24.5 -202v-780h-197v778q0 129 -63.5 192.5t-169.5 63.5q-111 0 -188 -63.5t-77 -190.5v-780h-196z" />
<glyph unicode="o" d="M102 436v342q0 119 31 202t89.5 134t141 74.5t187.5 23.5q104 0 187 -23.5t141.5 -74.5t89 -134t30.5 -202v-342q0 -244 -105 -350t-343 -106q-121 0 -207 25.5t-139 80.5t-78 141t-25 209zM297 436q0 -82 15.5 -136t46 -88t78.5 -48t114 -14q68 0 116 14t78.5 48t45 88 t14.5 136v342q0 82 -17.5 132.5t-49 79t-79 38.5t-108.5 10t-108.5 -10t-79 -38.5t-49 -79t-17.5 -132.5v-342z" />
<glyph unicode="p" horiz-adv-x="1150" d="M135 -403v1601h164l25 -158q29 78 110.5 121t186.5 43q90 0 164.5 -22.5t128 -72.5t83 -133t29.5 -204v-315q0 -244 -108.5 -354.5t-296.5 -110.5q-98 0 -169 19.5t-120 84.5v-499h-197zM332 451q0 -154 57 -212.5t189 -58.5q131 0 192 61.5t61 219.5v313q0 74 -15 122 t-45 75.5t-75 39t-104 11.5q-61 -2 -110.5 -18.5t-82 -52.5t-50 -95t-17.5 -147v-258z" />
<glyph unicode="q" horiz-adv-x="1126" d="M109 446v314q0 123 24.5 209t77.5 141t139 81t207 26t206 -26t139 -81t79 -141t25 -209v-1176h-197v522q-35 -53 -106.5 -86.5t-176.5 -33.5q-225 0 -321 118.5t-96 341.5zM303 451q0 -84 15.5 -138.5t46 -85t79 -43t113.5 -12.5q53 0 99 11.5t80 42t53.5 82.5t19.5 134 l2 318q0 82 -16.5 134t-48 83t-78.5 42t-111 11q-63 0 -110.5 -11t-79 -42t-48 -83t-16.5 -134v-309z" />
<glyph unicode="r" horiz-adv-x="712" d="M123 -2v1200h178l8 -111q45 68 139 101q56 19 117 20q43 0 88 -10v-199q-41 7 -78 7q-28 0 -54 -4q-60 -9 -106 -37.5t-72 -77.5t-26 -119v-770h-194z" />
<glyph unicode="s" horiz-adv-x="999" d="M78 371h196q4 -57 23.5 -96t52.5 -63t74 -34t88 -10q111 0 170 52t59 138q0 53 -24.5 84t-64.5 47.5t-91 22.5t-106 10t-119 17.5t-119 47.5t-92 95t-37 164q0 80 25.5 146.5t77 115.5t130 76.5t183.5 27.5q209 0 306 -93q93 -89 93 -246v-13h-186q0 86 -52.5 131 t-166.5 45q-102 0 -158.5 -46t-56.5 -144q0 -53 19.5 -82t53 -42t79.5 -18.5t102 -9.5q68 -6 139.5 -18t128.5 -46t94 -97.5t37 -172.5q0 -94 -32 -163.5t-88 -115.5t-134 -68.5t-170 -22.5q-207 0 -316.5 94t-117.5 287z" />
<glyph unicode="t" horiz-adv-x="600" d="M131 330v1077l191 23v-238h206v-184h-206v-672q0 -92 47 -132q34 -29 105 -29q29 0 63 5v-180q-47 -5 -87 -5q-63 -1 -111 11q-79 18 -125 62.5t-64.5 111t-18.5 150.5z" />
<glyph unicode="u" horiz-adv-x="1169" d="M135 418v772h197v-770q0 -129 63.5 -192.5t169.5 -63.5q111 0 187.5 63.5t76.5 190.5v772h197v-1190h-174l-12 127q-27 -43 -62 -70.5t-74.5 -43t-84 -21.5t-87.5 -6q-98 0 -172.5 22.5t-125 73.5t-75 133t-24.5 203z" />
<glyph unicode="v" horiz-adv-x="915" d="M6 1198h203l123 -399q41 -135 72.5 -274.5t54.5 -254.5q23 117 52.5 257.5t74.5 275.5l123 395h202l-354 -1200h-197z" />
<glyph unicode="w" horiz-adv-x="1521" d="M16 1198h205l123 -399q41 -135 66.5 -274.5t48.5 -254.5q23 117 50.5 243t68.5 290l110 395h143l113 -395q41 -164 67.5 -290t49.5 -243q23 115 48.5 254.5t66.5 274.5l122 399h205l-344 -1200h-194l-99 350l-106 465l-109 -471l-96 -344h-195z" />
<glyph unicode="x" horiz-adv-x="972" d="M18 0l355 604l-342 590h219l112 -190l123 -238l127 240l111 188h213l-340 -588l360 -606h-219l-121 209l-133 252l-133 -254l-119 -207h-213z" />
<glyph unicode="y" horiz-adv-x="1005" d="M31 1198h213l114 -385l154 -555q8 43 19.5 95.5t29 120t42 153.5t59.5 198l116 373h203l-375 -1200l-71 -227q-57 -182 -161 -231q-43 -19 -97 -19q-77 0 -179 41l35 166q31 -12 63 -20q17 -5 34 -5q15 0 30 4q31 8 57.5 36t44.5 85l50 170z" />
<glyph unicode="z" horiz-adv-x="995" d="M63 0v31l590 989h-534v178h823v-35l-582 -981h594v-182h-891z" />
<glyph unicode="{" horiz-adv-x="655" d="M84 696v129q49 0 80 19.5t47 49.5t21.5 66.5t5.5 73.5v369q0 182 85 263t285 42v-137q-59 12 -98 9t-62.5 -22.5t-32.5 -59.5t-9 -101v-363q0 -43 -2.5 -86t-15.5 -80t-42 -64.5t-84 -41.5q55 -14 85 -43t43 -66t15.5 -79t2.5 -85v-446q0 -61 8 -99t30.5 -56.5 t61.5 -20.5t100 6l2 -141l-2 -2q-104 -16 -175 -5t-114 49t-62 103.5t-19 157.5v452q0 37 -5.5 74t-21.5 66.5t-47 49t-80 19.5z" />
<glyph unicode="|" horiz-adv-x="538" d="M186 -211v1800h166v-1800h-166z" />
<glyph unicode="}" horiz-adv-x="694" d="M72 -268l2 141q61 -8 100 -6t61.5 20.5t30.5 56.5t8 99v446q0 43 2.5 85t15.5 79t43 66t85 43q-55 14 -84 41.5t-42 64.5t-15.5 80t-2.5 86v363q0 61 -9 101t-32.5 59.5t-62.5 22.5t-98 -9v137q201 39 285.5 -42t84.5 -263v-369q0 -37 5.5 -73.5t21.5 -66.5t47 -49.5 t80 -19.5v-129q-49 0 -80 -19.5t-47 -49t-21.5 -66.5t-5.5 -74v-452q0 -92 -19 -157.5t-62.5 -103.5t-114 -49.5t-174.5 5.5z" />
<glyph unicode="~" horiz-adv-x="1323" d="M156 557q23 68 63.5 119t94 79.5t116 30.5t127.5 -28l260 -127q154 -78 230 108l127 -49q-49 -139 -151.5 -198.5t-248.5 6.5l-264 129q-35 12 -67.5 17t-63.5 -6t-57.5 -42t-49.5 -88z" />
<glyph unicode="&#xa2;" horiz-adv-x="1081" d="M102 436v340q0 102 26 178t73 128.5t112.5 83t145.5 40.5v203h190v-201q82 -10 147.5 -32.5t110.5 -67.5t68.5 -117.5t23.5 -183.5h-194q0 72 -15.5 117t-46 70.5t-79 34.5t-113.5 9q-131 0 -192.5 -56t-61.5 -206v-340q0 -82 15.5 -135t46 -84t78.5 -43t114 -12t114 9 t78.5 35.5t46 76t15.5 131.5h194q0 -219 -86 -316.5t-276 -113.5v-191h-186v193q-184 20 -266.5 126.5t-82.5 323.5z" />
<glyph unicode="&#xa3;" horiz-adv-x="1122" d="M68 0v186h196v535h-196v188h196v267q0 197 96.5 309t294.5 112q168 0 268.5 -99t100.5 -292h-178q0 106 -53.5 159.5t-137.5 53.5q-92 0 -146 -58t-54 -179v-273h366v-188h-366v-537h575v-184h-962z" />
<glyph unicode="&#xa5;" horiz-adv-x="1036" d="M45 1581h211l127 -307l139 -393l140 393l126 307h211l-329 -793h182v-149h-234v-78h236v-145h-236v-418h-194v418h-225v145h225v78h-225v149h172z" />
<glyph unicode="&#xa8;" horiz-adv-x="911" d="M119 1475q0 55 37 84.5t81 29.5t80.5 -28.5t36.5 -85.5q0 -55 -36.5 -84t-80.5 -30t-81 27t-37 87zM565 1475q0 55 37 84.5t81 29.5t81 -28.5t37 -85.5q0 -55 -37 -84t-81 -30t-81 27t-37 87z" />
<glyph unicode="&#xa9;" horiz-adv-x="1724" d="M125 770q0 141 46 276.5t138 242t231.5 170t325.5 61.5v-2q182 2 319.5 -58.5t229.5 -162t139.5 -234.5t47.5 -277q0 -156 -45.5 -294t-136.5 -242.5t-229 -164.5t-325 -60q-184 0 -323.5 57t-232.5 158.5t-139 236.5t-46 293zM276 766q0 -127 37 -237.5t111 -192.5 t184.5 -128t257.5 -46t257 46t182.5 128t108.5 196.5t36 249.5q0 127 -38 235.5t-111.5 187.5t-182.5 124t-252 45q-147 0 -257.5 -46t-184.5 -127t-111 -192.5t-37 -242.5zM549 662v233q0 164 86 235.5t229 71.5q137 0 219 -64.5t88 -217.5l-135 -2q-4 96 -48 124.5 t-124 28.5q-43 0 -74.5 -6t-54 -25.5t-34 -54.5t-11.5 -90v-233q0 -57 11.5 -93.5t34 -58t54 -29.5t74.5 -8t75 6t53.5 23.5t32.5 50.5t11 86h135q-4 -164 -74.5 -231.5t-232.5 -67.5t-238.5 76t-76.5 246z" />
<glyph unicode="&#xab;" horiz-adv-x="935" d="M100 608l283 451h180l-280 -451l280 -452h-180zM369 608l282 451h180l-280 -451l280 -452h-180z" />
<glyph unicode="&#xad;" horiz-adv-x="1009" d="M125 526v179h770v-179h-770z" />
<glyph unicode="&#xae;" horiz-adv-x="1716" d="M119 725q0 156 49 293t144.5 240.5t233.5 164t316 60.5q180 0 318.5 -60.5t233.5 -164t144.5 -240.5t49.5 -293q0 -154 -49.5 -292t-144.5 -241.5t-233.5 -164t-318.5 -60.5q-178 0 -316 60.5t-233.5 164t-144.5 241.5t-49 292zM276 725v4q0 -129 39 -241.5t114 -196.5 t183.5 -132t249.5 -48t251 48t185.5 132t114.5 195.5t39 240.5t-39 241.5t-114.5 196.5t-185 132.5t-251.5 48.5q-141 0 -249.5 -48.5t-183.5 -132.5t-114 -197.5t-39 -242.5zM610 301v875h269q61 0 113 -11.5t92 -41t62.5 -82t22.5 -134.5v-37q0 -111 -37.5 -175 t-134.5 -83l181 -311h-160l-166 285h-107v-285h-135zM745 715h134q39 0 66.5 6t46 23.5t26.5 48t8 77.5v37q0 47 -8 74t-26.5 39t-46 16t-66.5 6h-134v-327z" />
<glyph unicode="&#xb4;" horiz-adv-x="501" d="M111 1313v10l108 260h193v-6l-146 -264h-155z" />
<glyph unicode="&#xb8;" horiz-adv-x="602" d="M55 -371l70 109q16 -29 50 -51.5t73 -22.5q35 0 61.5 14.5t36.5 55.5q6 27 -3 51.5t-29.5 39.5t-50.5 17t-66 -14l-29 27l-4 -2l45 186h133l-23 -102q57 4 93.5 -17.5t55.5 -55.5t23.5 -74t-2.5 -75q-18 -92 -85.5 -144t-159.5 -46q-49 4 -102.5 26.5t-86.5 77.5z" />
<glyph unicode="&#xbb;" horiz-adv-x="935" d="M106 160l279 450l-279 451h179l282 -451l-282 -450h-179zM375 160l278 450l-278 451h178l283 -451l-283 -450h-178z" />
<glyph unicode="&#xc7;" horiz-adv-x="1187" d="M100 524v537q0 129 19.5 228.5t75 167t153.5 102t256 34.5q154 0 249 -28.5t149.5 -86t74 -143.5t21.5 -200h-191q0 72 -11 124t-43 85.5t-91.5 50t-157.5 16.5q-102 0 -163.5 -19.5t-93.5 -61.5t-41 -107.5t-9 -159.5v-541q0 -94 10 -159.5t43 -107.5t93.5 -61.5 t160.5 -19.5t160.5 13.5t93.5 48t43 94t10 153.5h187q0 -111 -11.5 -198.5t-55.5 -151t-132 -100.5t-242 -41l-20 -96q57 4 93 -17.5t56.5 -55.5t25.5 -75t-1 -76q-20 -98 -89 -146t-161 -42q-49 4 -102 26.5t-86 77.5l69 109q16 -29 50 -51.5t73 -22.5q35 0 61.5 14.5 t37.5 55.5q6 27 -3.5 51.5t-30 39.5t-50 17t-66.5 -14l-29 27l-4 -2l43 180q-145 8 -229 46t-127 105.5t-55.5 162.5t-12.5 218z" />
<glyph unicode="&#xd6;" horiz-adv-x="1220" d="M104 518v551q0 129 18.5 228.5t74 167t156 102.5t263.5 35q162 0 262.5 -35t156 -102.5t74.5 -167t19 -228.5v-551q0 -129 -19 -228.5t-74.5 -167t-156 -102t-262.5 -34.5q-164 0 -264 34.5t-155.5 102t-74 167t-18.5 228.5zM289 1815q0 55 36.5 84.5t81 29.5t81 -28.5 t36.5 -85.5q0 -55 -36.5 -84t-81 -30t-81 27t-36.5 87zM301 516q0 -94 8 -159.5t39 -107.5t94.5 -61.5t173.5 -19.5q111 0 174.5 19.5t94 61.5t39 107.5t8.5 159.5v555q0 94 -8.5 160.5t-39 109.5t-94 62.5t-174.5 19.5t-174 -19.5t-94 -62.5t-39 -109.5t-8 -160.5v-555z M735 1815q0 55 37 84.5t81 29.5t81 -28.5t37 -85.5q0 -55 -37 -84t-81 -30t-81 27t-37 87z" />
<glyph unicode="&#xdc;" horiz-adv-x="1232" d="M123 520v1059h196v-1061q0 -94 11.5 -159.5t44.5 -107.5t89 -61.5t148 -19.5t148.5 19.5t87.5 61.5t42 107.5t11 159.5v1063h197v-1061q0 -129 -23.5 -228t-79 -167t-148.5 -102.5t-235 -34.5q-141 0 -234 34.5t-150.5 102.5t-81 167t-23.5 228zM279 1825q0 55 36.5 84.5 t80.5 29.5t81 -28.5t37 -85.5q0 -55 -37 -84t-81 -30t-80.5 27t-36.5 87zM725 1825q0 55 37 84.5t81 29.5t81 -28.5t37 -85.5q0 -55 -37 -84t-81 -30t-81 27t-37 87z" />
<glyph unicode="&#xe7;" horiz-adv-x="1081" d="M102 436v340q0 119 31 202t89.5 135t141 75.5t187.5 23.5q100 0 179 -19t135.5 -65.5t88 -124t35.5 -192.5l-184 -2q-4 70 -21.5 114t-50.5 68.5t-79 32.5t-103 8q-61 0 -108.5 -9t-80 -37t-49 -78t-16.5 -132v-340q0 -82 16.5 -134t48 -83t79.5 -42t110 -11 q61 0 108.5 8t79 35t48 73t18.5 124h184q-2 -111 -24.5 -190t-68.5 -129t-118.5 -75.5t-175.5 -29.5l-20 -88q55 4 91 -16.5t55.5 -53.5t23.5 -73t-2 -73q-18 -90 -86 -140t-158 -44q-49 4 -101.5 26.5t-85.5 76.5l68 104q16 -29 50 -50.5t73 -21.5q35 0 61.5 14.5 t36.5 53.5q6 27 -3 50.5t-29.5 37.5t-50 16t-66.5 -12l-29 25l-4 -2l43 172q-190 14 -278.5 121.5t-88.5 330.5z" />
<glyph unicode="&#xf6;" d="M102 436v342q0 119 31 202t89.5 134t141 74.5t187.5 23.5q104 0 187 -23.5t141.5 -74.5t89 -134t30.5 -202v-342q0 -244 -105 -350t-343 -106q-121 0 -207 25.5t-139 80.5t-78 141t-25 209zM244 1475q0 55 36.5 84.5t81 29.5t81 -28.5t36.5 -85.5q0 -55 -36.5 -84 t-81 -30t-81 27t-36.5 87zM297 436q0 -82 15.5 -136t46 -88t78.5 -48t114 -14q68 0 116 14t78.5 48t45 88t14.5 136v342q0 82 -17.5 132.5t-49 79t-79 38.5t-108.5 10t-108.5 -10t-79 -38.5t-49 -79t-17.5 -132.5v-342zM639 1475q0 55 37 84.5t81 29.5t80.5 -28.5 t36.5 -85.5q0 -55 -36.5 -84t-80.5 -30t-81 27t-37 87z" />
<glyph unicode="&#xfc;" horiz-adv-x="1193" d="M160 418v772h196v-770q0 -129 63.5 -192.5t170.5 -63.5q111 0 187.5 63.5t76.5 190.5v772h197v-1190h-174l-13 127q-27 -43 -61.5 -70.5t-74.5 -43t-84 -21.5t-87 -6q-98 0 -173 22.5t-125 73.5t-74.5 133t-24.5 203zM291 1475q0 55 37 84.5t81 29.5t80.5 -28.5 t36.5 -85.5q0 -55 -36.5 -84t-80.5 -30t-81 27t-37 87zM737 1475q0 55 37 84.5t81 29.5t81 -28.5t37 -85.5q0 -55 -37 -84t-81 -30t-81 27t-37 87z" />
<glyph unicode="&#x11e;" horiz-adv-x="1222" d="M113 516v549q0 129 18.5 228.5t73.5 167t155.5 102t264.5 34.5q156 0 253 -25.5t152 -78.5t75.5 -137t24.5 -201h-190q-2 68 -14.5 118t-46 83t-95 49t-159.5 16t-160 -19.5t-96.5 -61.5t-47 -109.5t-12.5 -163.5v-553q0 -94 8.5 -159.5t39 -107.5t94 -61.5t174.5 -19.5 t174 13.5t94 48t39 94t8 153.5v215h-307v176h504v-391q0 -115 -13.5 -206t-64.5 -154.5t-153.5 -97t-280.5 -33.5q-164 0 -264.5 34.5t-155.5 102t-73.5 167t-18.5 228.5zM373 1956h145q0 -29 3 -53.5t15.5 -42t35 -27.5t61.5 -10t61.5 10t33.5 27.5t14 42t3 53.5h146 q6 -135 -55.5 -201.5t-202.5 -66.5t-203.5 66.5t-56.5 201.5z" />
<glyph unicode="&#x11f;" horiz-adv-x="1114" d="M102 406v362q0 121 30 204t83 133t128 72.5t165 22.5q104 0 184 -43t109 -121l24 152h162v-1229q0 -123 -31.5 -209t-90 -141t-139.5 -81t-181 -26q-190 0 -299 80t-117 277h186q4 -53 22.5 -88t49.5 -55.5t71 -27.5t89 -7q57 0 105 13t82 45t52.5 85t18.5 135v197 q-10 -31 -35 -59.5t-61.5 -51t-85 -37t-105.5 -14.5q-209 0 -312.5 103.5t-103.5 308.5zM297 428q0 -141 58.5 -196.5t162.5 -55.5q63 0 113.5 14.5t86.5 49t55.5 96t19.5 153.5v232q-2 84 -19.5 140.5t-49.5 90t-79 49t-108 17.5q-59 0 -104.5 -11.5t-75 -39t-45 -75.5 t-15.5 -122v-342zM297 1595h145q0 -29 3.5 -53t15.5 -41.5t34.5 -28t61.5 -10.5t61.5 10.5t34 28t14.5 42t3 52.5h145q6 -135 -55.5 -201.5t-202.5 -66.5t-203.5 66.5t-56.5 201.5z" />
<glyph unicode="&#x131;" horiz-adv-x="493" d="M162 0v1190h194v-1190h-194z" />
<glyph unicode="&#x15e;" horiz-adv-x="1161" d="M90 418h211q4 -49 18.5 -92t45 -75t82 -50.5t126.5 -18.5h39q80 0 130.5 18.5t78 54.5t37.5 89t10 123q0 96 -29.5 149.5t-79.5 80t-117 34.5t-140 14q-70 6 -140.5 28t-127 68t-92.5 121.5t-36 188.5q0 219 108 331.5t357 112.5q117 0 201 -26.5t138.5 -78.5t82 -127 t33.5 -173h-203q-4 49 -16 89t-40 69.5t-75 46t-121 16.5q-82 0 -133 -18.5t-79.5 -52t-39 -81t-10.5 -106.5q0 -82 33 -127t87 -66.5t125 -28.5t144 -16q68 -6 134.5 -29.5t119 -72.5t85 -131t32.5 -205q0 -246 -98.5 -361.5t-323.5 -123.5l-16 -74q57 4 94 -16.5t56.5 -52 t23.5 -70.5t-2 -72q-18 -88 -87 -138t-161 -44q-51 4 -104.5 25.5t-88.5 74.5l72 105q16 -29 50 -50.5t75 -21.5q35 0 61.5 14.5t36.5 53.5q6 27 -3 49t-29.5 36.5t-51 16.5t-67.5 -12l-29 24l-4 -2l39 156q-211 14 -311.5 124.5t-110.5 299.5z" />
<glyph unicode="&#x15f;" horiz-adv-x="999" d="M78 371h196q4 -57 23.5 -96t52.5 -63t74 -34t88 -10q111 0 170 52t59 138q0 53 -24.5 84t-64.5 47.5t-91 22.5t-106 10t-119 17.5t-119 47.5t-92 95t-37 164q0 80 25.5 146.5t77 115.5t130 76.5t183.5 27.5q209 0 306 -93t93 -259h-186q0 86 -52.5 131t-166.5 45 q-102 0 -158.5 -46t-56.5 -144q0 -53 19.5 -82t53 -42t79.5 -18.5t102 -9.5q68 -6 139.5 -18t128.5 -46t94 -97.5t37 -172.5q0 -86 -26.5 -151.5t-75 -111.5t-116 -71.5t-149.5 -31.5l-16 -78q57 4 93 -15.5t55.5 -51t23.5 -69.5t-2 -71q-18 -86 -86 -134t-160 -44 q-47 4 -100 24.5t-86 73.5l69 103q16 -29 50 -49.5t71 -20.5q35 0 61.5 13.5t37.5 52.5q6 25 -3.5 47t-30 36.5t-50 16.5t-64.5 -12l-29 24l-4 -2l39 156q-172 16 -263 109.5t-97 267.5z" />
<glyph unicode="&#x18f;" horiz-adv-x="1251" d="M117 475v391h827v201q0 96 -12 163.5t-47 109.5t-96.5 61.5t-159.5 19.5t-159.5 -16t-95.5 -49t-46.5 -83t-14.5 -118h-190q2 117 23.5 201t77 137t152.5 78.5t253 25.5q162 0 262 -34.5t155.5 -102t75 -167t19.5 -228.5v-549q0 -129 -19.5 -228.5t-75 -167t-155.5 -102 t-262 -34.5q-178 0 -280.5 33.5t-154 97t-64.5 154.5t-13 206zM313 475q0 -94 8.5 -153.5t39 -94t94 -48t174.5 -13.5t174 19.5t94 61.5t39 107.5t8 159.5v176h-631v-215z" />
<glyph unicode="&#x259;" d="M109 416v256h692v90q0 80 -15.5 131t-46 79.5t-78 40t-110.5 11.5q-129 0 -189.5 -44t-60.5 -136h-188q0 174 102 267t336 93q119 0 204 -23.5t137 -75.5t76.5 -135t24.5 -204v-350q0 -117 -30.5 -199t-88 -133t-139.5 -73.5t-184 -22.5q-100 0 -182 23.5t-139.5 73.5 t-89 132t-31.5 199zM295 416q0 -80 18.5 -129t52 -78t81 -39t104.5 -10t103 10t79 38t50.5 78t17.5 130v86h-506v-86z" />
<glyph unicode="&#x2c6;" horiz-adv-x="727" d="M53 1325v14l246 250h117l254 -250v-14h-191l-117 117l-118 -117h-191z" />
<glyph unicode="&#x2da;" horiz-adv-x="655" d="M125 1378q0 51 18.5 91t49 68t69.5 41t82 13q41 0 81 -13t70.5 -40t50 -66.5t19.5 -91.5q0 -53 -18.5 -93t-49 -66.5t-70.5 -41t-85 -14.5q-90 0 -154.5 55.5t-62.5 157.5zM250 1378q0 -35 23.5 -63.5t70.5 -28.5q49 0 72.5 28.5t23.5 63.5t-24.5 63.5t-71.5 28.5 t-70.5 -28.5t-23.5 -63.5z" />
<glyph unicode="&#x2dc;" horiz-adv-x="731" d="M82 1438q23 92 93.5 134t156.5 11l92 -43q33 -12 60.5 -3t43.5 56l117 -47q-10 -55 -35.5 -91t-58.5 -54.5t-70 -19.5t-73 14l-91 41q-35 12 -69.5 5t-52.5 -57z" />
<glyph unicode="&#x2000;" horiz-adv-x="978" />
<glyph unicode="&#x2001;" horiz-adv-x="1956" />
<glyph unicode="&#x2002;" horiz-adv-x="978" />
<glyph unicode="&#x2003;" horiz-adv-x="1956" />
<glyph unicode="&#x2004;" horiz-adv-x="652" />
<glyph unicode="&#x2005;" horiz-adv-x="489" />
<glyph unicode="&#x2006;" horiz-adv-x="326" />
<glyph unicode="&#x2007;" horiz-adv-x="326" />
<glyph unicode="&#x2008;" horiz-adv-x="244" />
<glyph unicode="&#x2009;" horiz-adv-x="391" />
<glyph unicode="&#x200a;" horiz-adv-x="108" />
<glyph unicode="&#x2010;" horiz-adv-x="1009" d="M125 526v179h770v-179h-770z" />
<glyph unicode="&#x2011;" horiz-adv-x="1009" d="M125 526v179h770v-179h-770z" />
<glyph unicode="&#x2012;" horiz-adv-x="1009" d="M125 526v179h770v-179h-770z" />
<glyph unicode="&#x2013;" horiz-adv-x="1253" d="M158 612v158h938v-158h-938z" />
<glyph unicode="&#x2014;" horiz-adv-x="1462" d="M158 616v158h1147v-158h-1147z" />
<glyph unicode="&#x2018;" horiz-adv-x="501" d="M121 1190l137 391h137l-94 -391h-180z" />
<glyph unicode="&#x2019;" horiz-adv-x="491" d="M125 1188l96 399h180l-137 -399h-139z" />
<glyph unicode="&#x201a;" horiz-adv-x="516" d="M88 -236l94 398h180l-137 -398h-137z" />
<glyph unicode="&#x201c;" horiz-adv-x="774" d="M92 1186l139 395h138l-97 -395h-180zM389 1186l139 395h140l-99 -395h-180z" />
<glyph unicode="&#x201d;" horiz-adv-x="792" d="M129 1190l96 389h181l-138 -389h-139zM428 1190l94 389h180l-137 -389h-137z" />
<glyph unicode="&#x201e;" horiz-adv-x="813" d="M86 -236l96 398h180l-137 -398h-139zM385 -236l94 398h180l-137 -398h-137z" />
<glyph unicode="&#x2026;" horiz-adv-x="1210" d="M102 100q0 55 37 85t81 30t81 -28.5t37 -86.5q0 -55 -37 -83.5t-81 -29.5t-81 26.5t-37 86.5zM494 100q0 55 36.5 85t80.5 30t81 -28.5t37 -86.5q0 -55 -37 -83.5t-81 -29.5t-80.5 26.5t-36.5 86.5zM885 100q0 55 36.5 85t81 30t81 -28.5t36.5 -86.5q0 -55 -36.5 -83.5 t-81 -29.5t-81 26.5t-36.5 86.5z" />
<glyph unicode="&#x202f;" horiz-adv-x="391" />
<glyph unicode="&#x2039;" horiz-adv-x="667" d="M100 610l283 451h180l-280 -451l280 -452h-180z" />
<glyph unicode="&#x203a;" horiz-adv-x="671" d="M109 156l280 452l-280 451h180l282 -451l-282 -452h-180z" />
<glyph unicode="&#x205f;" horiz-adv-x="489" />
<glyph unicode="&#x20ac;" horiz-adv-x="1099" d="M57 846v158h142q20 127 66 235.5t122 188t183.5 125.5t250.5 46q47 0 91 -10t89 -26l-45 -164q-59 23 -131 22q-111 0 -185.5 -29.5t-124.5 -85t-79.5 -132t-50.5 -170.5h442l-30 -158h-443v-64v-57h416l-25 -156h-362q18 -94 46 -170.5t77 -131t126 -84t193 -29.5 q84 0 164 39l43 -170v-7q-53 -23 -103 -34t-106 -11q-160 0 -269.5 43t-181 121t-112.5 186.5t-61 241.5h-140v156h121q-2 6 -2 29.5v29.5v33.5t2 34.5h-123z" />
<glyph unicode="&#x2122;" horiz-adv-x="1028" d="M51 1462v111h367v-111h-125v-536h-117v536h-125zM500 924v651h141l86 -254l86 254h141v-651h-114v217l10 186l-96 -289h-54l-96 289l10 -186v-217h-114z" />
<glyph unicode="&#x25fc;" horiz-adv-x="1198" d="M0 0v1198h1198v-1198h-1198z" />
</font>
</defs>
</svg>
