<?xml version="1.0" standalone="no"?>
<!DOCTYPE svg PUBLIC "-//W3C//DTD SVG 1.1//EN" "http://www.w3.org/Graphics/SVG/1.1/DTD/svg11.dtd" >
<svg xmlns="http://www.w3.org/2000/svg">
<metadata></metadata>
<defs>
<font id="kelson_sansbold" horiz-adv-x="1081" >
<font-face units-per-em="2048" ascent="1536" descent="-512" />
<missing-glyph horiz-adv-x="514" />
<glyph horiz-adv-x="0" />
<glyph horiz-adv-x="0" />
<glyph unicode="&#xd;" horiz-adv-x="548" />
<glyph unicode=" "  horiz-adv-x="514" />
<glyph unicode="&#x09;" horiz-adv-x="514" />
<glyph unicode="&#xa0;" horiz-adv-x="514" />
<glyph unicode="!" horiz-adv-x="548" d="M123 147q0 78 49 117t109.5 39t109.5 -39t49 -117t-49 -115.5t-109.5 -37.5t-109.5 37.5t-49 115.5zM156 401v1176h278l-20 -1176h-258z" />
<glyph unicode="&#x22;" horiz-adv-x="716" d="M72 1575h237l-8 -465h-221zM430 1575h238l-9 -465h-221z" />
<glyph unicode="#" horiz-adv-x="1435" d="M66 424l47 219h204l60 295h-205l47 219h205l84 406h231l-84 -406h297l84 406h232l-84 -406h200l-47 -219h-200l-60 -295h201l-47 -219h-199l-86 -424h-233l86 424h-297l-86 -424h-232l86 424h-204zM549 643h297l59 295h-297z" />
<glyph unicode="$" horiz-adv-x="1206" d="M90 428h285q4 -92 54 -139t185 -47q129 0 188.5 57t59.5 193q0 70 -37 107.5t-94 58t-125.5 27.5t-132.5 15q-68 8 -133.5 32t-117.5 73t-84 129t-32 203q0 195 99.5 305t292.5 135v221h252v-223q154 -25 249 -120t111 -290h-285q-6 100 -58 136t-157 36q-117 0 -168 -43 t-51 -155q0 -74 29 -113t81 -57.5t124.5 -26.5t162.5 -22q68 -10 132.5 -33t114.5 -69t80 -121.5t30 -194.5q0 -238 -93.5 -360t-301.5 -150v-215h-252v213q-115 12 -194 50t-126 95.5t-67.5 132t-20.5 160.5z" />
<glyph unicode="%" horiz-adv-x="1693" d="M61 1112v176q0 303 299 303q156 0 230 -72.5t74 -230.5v-176q0 -158 -74 -230.5t-230 -72.5q-154 0 -226.5 72.5t-72.5 230.5zM272 1143q0 -55 17.5 -85t70.5 -30t72 29.5t19 85.5v117q0 55 -18.5 83.5t-72.5 28.5q-53 0 -70.5 -28.5t-17.5 -83.5v-117zM469 0l457 1606 l276 -27l-459 -1608zM1010 303v176q0 303 299 303q156 0 229.5 -72.5t73.5 -230.5v-176q0 -158 -73.5 -230.5t-229.5 -72.5q-154 0 -226.5 72.5t-72.5 230.5zM1221 334q0 -55 17.5 -85t70.5 -30t71.5 30t18.5 85v117q0 55 -18.5 83.5t-71.5 28.5t-70.5 -28.5t-17.5 -83.5 v-117z" />
<glyph unicode="&#x26;" horiz-adv-x="1343" d="M106 457q0 61 18.5 119.5t53.5 109.5t84 92t111 66q-102 45 -147.5 129t-45.5 194q0 92 37 173t100.5 140.5t149.5 94.5t184 35q223 0 340 -114t111 -312h-273q2 47 -12 78.5t-38.5 50t-57.5 27t-70 8.5q-80 0 -132 -54.5t-52 -130.5q0 -37 14.5 -71.5t39 -61t58 -43 t72.5 -16.5h623v-250h-162v-281q0 -39 7 -74.5t25.5 -63.5t51.5 -44t86 -16l2 -271q-129 4 -203.5 52.5t-105.5 142.5q-23 -49 -64 -87t-91 -62.5t-103 -37t-101 -12.5q-238 0 -374 117t-136 373zM395 467q-2 -117 63.5 -176.5t162.5 -59.5q41 0 79.5 13.5t68.5 40 t48.5 66.5t18.5 93v277h-187q-57 0 -104 -19.5t-80 -54.5t-51.5 -81t-18.5 -99z" />
<glyph unicode="'" horiz-adv-x="376" d="M72 1575h237l-8 -465h-221z" />
<glyph unicode="(" horiz-adv-x="620" d="M119 39v1114q0 104 25.5 190.5t81 147.5t141.5 94t206 31v-285q-98 4 -135 -45t-37 -137v-1106q0 -88 37 -137t135 -45v-285q-121 -4 -206.5 30t-141 95t-81 147t-25.5 191z" />
<glyph unicode=")" horiz-adv-x="638" d="M63 -139q98 -4 135.5 45t37.5 137v1106q0 88 -37 137t-136 45v285q121 2 207 -31t141.5 -94t81 -147.5t25.5 -190.5v-1114q0 -104 -25.5 -190.5t-81 -147.5t-141.5 -95t-207 -30v285z" />
<glyph unicode="*" horiz-adv-x="718" d="M59 1436l181 180q74 -74 104 -172h49q16 49 43 91t64 79l178 -178q-74 -74 -170 -105q-2 -12 -2 -24.5v-24.5q100 -31 172 -106l-178 -179q-72 70 -105 170q-12 2 -24.5 3t-26.5 -1q-31 -98 -104 -172l-179 179q78 78 168 104q4 12 4 24.5v24.5q-102 33 -174 107z" />
<glyph unicode="+" horiz-adv-x="987" d="M68 647v234h294v305h252v-305h295v-234h-295v-303h-252v303h-294z" />
<glyph unicode="," horiz-adv-x="428" d="M0 -195q43 33 63.5 65t26.5 67.5t4 78.5t-2 99h238q16 -180 -44.5 -289t-201.5 -162z" />
<glyph unicode="-" d="M125 578v235h842v-235h-842z" />
<glyph unicode="." horiz-adv-x="493" d="M102 147q0 78 49.5 117t110 39t109.5 -39t49 -117t-49 -115.5t-109.5 -37.5t-110 37.5t-49.5 115.5z" />
<glyph unicode="/" horiz-adv-x="882" d="M82 -2l450 1579h263l-453 -1579h-260z" />
<glyph unicode="0" horiz-adv-x="1142" d="M106 467v637q0 240 115 355.5t354 115.5q240 0 354.5 -112.5t114.5 -358.5v-637q0 -246 -114.5 -358.5t-354.5 -112.5t-354.5 112.5t-114.5 358.5zM389 481q0 -113 37.5 -174t148.5 -61t149 61.5t38 173.5v609q0 113 -38 174t-149 61t-148.5 -61.5t-37.5 -173.5v-609z " />
<glyph unicode="1" horiz-adv-x="866" d="M49 0v231h256v1106h-201v244h486v-1350h244v-231h-785z" />
<glyph unicode="2" horiz-adv-x="1095" d="M100 0v324q0 168 46.5 267t116 159.5t151.5 96.5t151.5 73.5t115.5 92t46 154.5q0 170 -164 170q-45 0 -76.5 -8t-53 -32.5t-32 -67.5t-10.5 -113h-282q0 236 106.5 353.5t349.5 117.5q117 0 201 -31.5t138 -88t80 -132t26 -164.5q0 -127 -27 -209.5t-71 -138t-100 -88.5 t-115.5 -57.5t-116 -48t-100.5 -60.5t-70.5 -93t-26.5 -146v-51h604v-279h-887z" />
<glyph unicode="3" horiz-adv-x="1097" d="M82 496h272q0 -106 42 -171t136 -65t143.5 47t49.5 170q0 66 -16.5 110t-44 70.5t-65.5 38t-81 11.5h-149v251h149q55 0 93 16.5t62.5 45.5t35 65.5t10.5 79.5q0 78 -42 127t-128 49q-76 0 -126 -45t-50 -153h-264q0 236 106.5 344t335.5 108q90 0 169 -26.5t138.5 -79.5 t94 -136t34.5 -194q0 -37 -8 -83t-28.5 -91t-54.5 -84t-83 -61q59 -23 97 -56.5t60.5 -80t31 -102.5t8.5 -122q0 -225 -119 -357t-356 -132q-121 0 -207 34.5t-140.5 101.5t-80 160t-25.5 210z" />
<glyph unicode="4" horiz-adv-x="1161" d="M-4 514l622 1067h273v-1008h151v-256h-151v-317h-273v317h-589zM336 573h282v234l31 348z" />
<glyph unicode="5" horiz-adv-x="1105" d="M82 530h280q4 -150 43 -217t150 -67t148.5 61.5t37.5 173.5v99q0 113 -35.5 171t-146.5 58h-467v766h860v-266h-592v-244h199q240 0 352.5 -112.5t112.5 -358.5v-127q0 -246 -114.5 -358.5t-354.5 -112.5q-119 0 -207 27.5t-146.5 91t-88 166t-31.5 249.5z" />
<glyph unicode="6" horiz-adv-x="1150" d="M113 451v266q0 137 36.5 264t100 237.5t149.5 201.5t185 157h340l8 -29q-74 -41 -136.5 -92t-114.5 -105.5t-90 -106.5t-63 -95q23 2 51.5 2h49.5q94 0 169.5 -25.5t130 -79t84 -135.5t29.5 -194v-266q0 -127 -25.5 -215.5t-81.5 -145.5t-144.5 -82.5t-212.5 -25.5 q-127 0 -215.5 25.5t-143.5 82.5t-80.5 145.5t-25.5 215.5zM397 451q0 -59 10.5 -98.5t33 -62t56.5 -31.5t81 -9t80.5 9t56 31.5t33 61.5t10.5 99v266q0 106 -43 143t-137 37t-137.5 -37t-43.5 -143v-266z" />
<glyph unicode="7" horiz-adv-x="958" d="M27 1309v266h888v-96l-503 -1479h-303l450 1309h-532z" />
<glyph unicode="8" horiz-adv-x="1122" d="M82 451v110q0 117 37 192.5t127 129.5q-39 27 -65.5 62.5t-44 76.5t-25 82t-7.5 76q0 84 26 157.5t80 129t139 87t204 31.5t204 -31.5t139 -87t79.5 -129t25.5 -157.5q0 -37 -9 -80t-26.5 -84t-43 -77t-56.5 -56q76 -59 115 -133t39 -189v-110q0 -246 -114.5 -358.5 t-354.5 -112.5t-354.5 112.5t-114.5 358.5zM365 465q0 -113 37.5 -174.5t148.5 -61.5t148.5 61.5t37.5 174.5v82q0 111 -37.5 168t-148.5 57t-148.5 -56.5t-37.5 -168.5v-82zM387 1174q0 -70 43 -124.5t123 -54.5h14q37 2 64.5 17.5t47 40t30 56.5t10.5 65q0 72 -43 116.5 t-123 44.5t-123 -45t-43 -116z" />
<glyph unicode="9" horiz-adv-x="1150" d="M113 860v266q0 125 25.5 214.5t81.5 146.5t144.5 82.5t213.5 25.5t214 -25.5t144 -82.5t80.5 -146.5t25.5 -214.5v-266q0 -137 -36.5 -264t-100 -237.5t-149.5 -201.5t-185 -157h-340l-8 29q74 39 136.5 91t114.5 106.5t90 106.5t63 95q-23 -2 -51.5 -2h-49.5 q-188 0 -300.5 104.5t-112.5 329.5zM397 860q0 -53 10.5 -88t33 -55.5t56 -28.5t81.5 -8q47 0 80.5 8t56 28.5t33 55.5t10.5 88v266q0 119 -43 160t-137 41t-137.5 -41t-43.5 -160v-266z" />
<glyph unicode=":" horiz-adv-x="509" d="M102 147q0 78 49.5 117t110 39t109.5 -39t49 -117t-49 -115.5t-109.5 -37.5t-110 37.5t-49.5 115.5zM102 848q0 78 49.5 117t110 39t109.5 -39t49 -117t-49 -116t-109.5 -38t-110 38t-49.5 116z" />
<glyph unicode=";" horiz-adv-x="536" d="M29 -193q43 33 64.5 65t29.5 67.5t7 77.5t-1 98h264q16 -180 -46 -289t-204 -162zM115 848q0 78 49 117t109.5 39t109.5 -39t49 -117t-49 -116t-109.5 -38t-109.5 38t-49 116z" />
<glyph unicode="&#x3c;" horiz-adv-x="860" d="M102 635v98l463 434l166 -178l-330 -305q39 -37 83 -76t88 -77.5t86 -77.5t79 -72l-172 -178z" />
<glyph unicode="=" horiz-adv-x="1138" d="M160 342v246h819v-246h-819zM160 784v246h819v-246h-819z" />
<glyph unicode="&#x3e;" horiz-adv-x="862" d="M127 371l332 303q-78 74 -167 159t-161 154l166 176l463 -438v-96l-463 -430z" />
<glyph unicode="?" horiz-adv-x="1093" d="M61 1174q0 131 39 217t103.5 137t147.5 71.5t171 22.5q96 0 182.5 -24.5t150 -80t100 -142.5t36.5 -212v-123q0 -111 -26.5 -180t-65.5 -115.5t-85 -78t-85 -65.5t-65.5 -78t-26.5 -117h-283q0 100 27 167.5t66.5 116.5t86 84t86 72t66.5 80t27 106v129q0 43 -9.5 80 t-31 64.5t-57 43t-89.5 15.5q-84 0 -134 -42t-50 -148h-281zM338 147q0 78 49 117t109.5 39t109.5 -39t49 -117t-49 -115.5t-109.5 -37.5t-109.5 37.5t-49 115.5z" />
<glyph unicode="@" horiz-adv-x="1634" d="M127 469v602q0 125 28.5 214t91 146.5t163 84t243.5 26.5h328q285 0 412 -110.5t127 -360.5v-373q0 -104 -25 -170.5t-69 -105.5t-104 -53.5t-132 -14.5q-51 0 -89 11.5t-65.5 30t-45 40t-25.5 43.5l-30.5 -30.5t-39.5 -29.5t-53.5 -21.5t-71.5 -8.5q-117 0 -183.5 64.5 t-66.5 189.5v246q0 61 24.5 108t64.5 79t93.5 48.5t108.5 16.5h289v-436q0 -29 1 -54.5t7 -45t20.5 -31t40.5 -11.5q45 0 56.5 36t11.5 101v377q0 55 -9 96t-37 68t-78 39t-132 12h-328q-78 0 -125 -15t-73.5 -46t-35.5 -75t-9 -99v-574q0 -55 9 -99t35.5 -74.5t73.5 -46 t125 -15.5h369v-250h-369q-281 0 -403.5 113.5t-122.5 357.5zM729 705q0 -95 84 -95q80 0 80 107v205h-82q-41 0 -61.5 -22.5t-20.5 -63.5v-131z" />
<glyph unicode="A" horiz-adv-x="1183" d="M18 0l437 1575h280l430 -1575h-291l-79 279h-404l-82 -279h-291zM461 555h262l-131 584z" />
<glyph unicode="B" horiz-adv-x="1275" d="M123 0v1577h469q106 0 192 -30.5t146.5 -86t93.5 -132.5t33 -169q0 -37 -5 -72.5t-20.5 -70.5t-43 -69t-75.5 -64q123 -27 206 -128.5t83 -265.5q0 -133 -33.5 -226t-103.5 -151.5t-174.5 -85t-247.5 -26.5h-520zM403 256h244q82 0 132 14.5t77 43t35 71.5t8 98 q0 57 -11 100.5t-40 72t-79 42t-126 13.5h-240v-455zM406 971h188q88 0 130 54t42 130q0 31 -7 62.5t-27.5 57t-54.5 43t-85 17.5h-186v-364z" />
<glyph unicode="C" horiz-adv-x="1275" d="M121 467v641q0 125 28.5 214t91 146.5t163 84t243.5 26.5t244.5 -27.5t167 -86t96.5 -151.5t31 -224h-283q0 57 -9 102t-37 75.5t-78 46t-132 15.5q-78 0 -125 -15.5t-73.5 -46t-36 -74.5t-9.5 -99v-613q0 -55 9.5 -99t36 -75t73.5 -46t125 -15q76 0 126 15t79 46t40 76 t11 104h283q0 -260 -129 -375.5t-410 -115.5t-403.5 113.5t-122.5 357.5z" />
<glyph unicode="D" horiz-adv-x="1310" d="M145 0v1577h519q285 0 411.5 -110.5t126.5 -360.5v-643q0 -244 -129 -353.5t-409 -109.5h-519zM426 256h238q76 0 126 13.5t78.5 41t40 69.5t11.5 97v615q0 55 -8.5 98t-35 71.5t-76.5 43t-132 14.5h-242v-1063z" />
<glyph unicode="E" horiz-adv-x="1155" d="M143 -2v1579h908v-246h-625v-405h532v-254h-532v-416h653v-258h-936z" />
<glyph unicode="F" horiz-adv-x="1130" d="M141 -2v1579h924v-258h-643v-393h545v-256h-545v-672h-281z" />
<glyph unicode="G" horiz-adv-x="1292" d="M117 481v633q0 121 28.5 209t91 146.5t163 87t243.5 28.5t244.5 -25.5t167 -83t96.5 -146.5t31 -216h-283q0 55 -9 96t-37 69t-78 42t-132 14q-78 0 -125 -16t-73.5 -47t-36 -75t-9.5 -97v-619q0 -55 9.5 -99t36 -75t73.5 -46t125 -15q154 0 215.5 62.5t61.5 178.5v154 h-269v256h531v-410q0 -260 -129 -377.5t-410 -117.5q-141 0 -240.5 28.5t-163 88t-93 152.5t-29.5 220z" />
<glyph unicode="H" horiz-adv-x="1341" d="M143 -2v1552h285v-669h492v669h280v-1550h-280v623h-492v-625h-285z" />
<glyph unicode="I" horiz-adv-x="571" d="M143 -2v1577h285v-1577h-285z" />
<glyph unicode="J" horiz-adv-x="1077" d="M16 475h283q0 -113 38 -174t148 -61q111 0 149 61t38 174v1102h282v-1116q0 -246 -114.5 -358.5t-354.5 -112.5t-354.5 119.5t-114.5 365.5z" />
<glyph unicode="K" horiz-adv-x="1290" d="M133 0v1577h283v-664h76l413 664h330l-514 -789l561 -788h-344l-444 633h-80v-633h-281z" />
<glyph unicode="L" horiz-adv-x="1085" d="M143 0v1577h285v-1319h608v-258h-893z" />
<glyph unicode="M" horiz-adv-x="1474" d="M143 0v1577h273l321 -698l324 698h272v-1577h-282v557l32 451l-313 -635h-63l-314 635l33 -451v-557h-283z" />
<glyph unicode="N" horiz-adv-x="1275" d="M141 0v1575h281l463 -1038l-31 665v373h281v-1575h-275l-463 999l25 -598v-401h-281z" />
<glyph unicode="O" horiz-adv-x="1312" d="M121 457v667q0 125 28.5 214t91 146.5t163 84t243.5 26.5q285 0 412 -110.5t127 -360.5v-667q0 -246 -128 -358.5t-411 -112.5q-281 0 -403.5 113.5t-122.5 357.5zM403 471q0 -55 9.5 -99t36 -75t73.5 -46t125 -15q76 0 126 15t79 46t40 75t11 99v639q0 53 -9 97t-37 75 t-78 47.5t-132 16.5q-78 0 -125 -16.5t-73.5 -47.5t-36 -75t-9.5 -97v-639z" />
<glyph unicode="P" horiz-adv-x="1185" d="M143 0v1577h398q285 0 422 -110.5t137 -360.5v-145q0 -246 -138.5 -362t-420.5 -116h-109v-483h-289zM430 756h111q154 0 213 53t59 166v117q0 55 -11 98t-41 71.5t-82 43t-134 14.5h-115v-563z" />
<glyph unicode="Q" horiz-adv-x="1308" d="M121 467v653q0 125 28.5 215t91 147.5t163 85t243.5 27.5q285 0 412 -112.5t127 -362.5v-639q0 -367 -271 -452q2 -41 11.5 -74t34 -54.5t71.5 -29.5q24 -4 55.5 -4t71.5 4v-225q-68 -10 -127 -10q-156 0 -248 68q-127 93 -137 292q-281 0 -403.5 113.5t-122.5 357.5z M403 481q0 -55 9.5 -99t36 -75t73.5 -46t125 -15q76 0 126 15t79 46t40 75t11 99v625q0 55 -9 99t-37 75t-78 46t-132 15q-78 0 -125 -15t-73.5 -46t-36 -75t-9.5 -99v-625z" />
<glyph unicode="R" horiz-adv-x="1216" d="M143 0v1577h398q285 0 422 -111.5t137 -361.5v-82q0 -176 -64.5 -275.5t-208.5 -146.5l347 -600h-330l-314 555h-104v-555h-283zM424 815h117q154 0 208 54.5t54 166.5v54q0 55 -9.5 98t-37 71.5t-78.5 43t-133 14.5h-121v-502z" />
<glyph unicode="S" horiz-adv-x="1236" d="M90 428h285q4 -92 54 -139t185 -47q129 0 188.5 57t59.5 193q0 70 -37 107.5t-94 58t-125.5 27.5t-132.5 15q-68 8 -133.5 32t-117.5 73t-84 129t-32 203q0 223 130.5 335.5t373.5 112.5q106 0 194.5 -21.5t153 -70.5t103.5 -129t49 -199h-285q-6 100 -58 136t-157 36 q-117 0 -168 -43t-51 -155q0 -74 29 -113t81 -57.5t124.5 -26.5t162.5 -22q68 -10 132.5 -33t114.5 -69t80 -121.5t30 -194.5q0 -137 -31 -235.5t-95.5 -161t-166.5 -92t-244 -29.5q-147 0 -246.5 33.5t-160 93t-86 140.5t-25.5 177z" />
<glyph unicode="T" horiz-adv-x="966" d="M16 1319v252h934v-252h-325v-1319h-281v1319h-328z" />
<glyph unicode="U" horiz-adv-x="1304" d="M123 467v1108h283v-1094q0 -113 53 -179t180 -66t187.5 66.5t60.5 178.5v1094h282v-1108q0 -246 -140 -363.5t-390 -117.5t-383 117.5t-133 363.5z" />
<glyph unicode="V" horiz-adv-x="1181" d="M18 1575h289l137 -481l148 -738l145 742l137 477h289l-424 -1577h-295z" />
<glyph unicode="W" horiz-adv-x="1896" d="M18 1577h291l156 -545l113 -643l258 1137h217l278 -1137l92 643l156 545h291l-395 -1579h-299l-232 852l-211 -852h-297z" />
<glyph unicode="X" horiz-adv-x="1142" d="M18 0l365 797l-336 780h307l105 -256l112 -336l111 330l106 262h308l-336 -780l364 -797h-305l-123 262l-125 342l-133 -360l-114 -244h-306z" />
<glyph unicode="Y" horiz-adv-x="1069" d="M-4 1577h305l123 -291l115 -338l114 346l117 283h305l-397 -918v-661h-281v661z" />
<glyph unicode="Z" horiz-adv-x="1079" d="M29 0l616 1325h-530v252h938l-607 -1327h572v-250h-989z" />
<glyph unicode="[" horiz-adv-x="753" d="M186 -303v1923h500v-274h-223v-1375h223v-274h-500z" />
<glyph unicode="\" horiz-adv-x="911" d="M92 1575h291l451 -1577h-289z" />
<glyph unicode="]" horiz-adv-x="772" d="M86 -29h221v1375h-221v274h500v-1923h-500v274z" />
<glyph unicode="^" horiz-adv-x="1320" d="M111 889l448 674h160l461 -674v-12h-285l-256 401l-258 -401h-268z" />
<glyph unicode="_" horiz-adv-x="1073" d="M72 -6v280h934v-280h-934z" />
<glyph unicode="`" horiz-adv-x="501" d="M0 1559h283l116 -279h-243z" />
<glyph unicode="a" horiz-adv-x="1112" d="M74 326q0 106 44 181t127 120t205 61q73 10 158 10q57 0 119 -4q0 135 -36 203t-146 68q-92 0 -130 -37q-36 -35 -37 -125q0 -5 1 -10h-268q-2 25 -2 48q1 188 103 275q114 98 331 98q238 0 345 -117.5t107 -353.5v-743h-229l-27 139q-51 -72 -133 -113.5t-184 -41.5 q-74 0 -138.5 21.5t-110.5 64.5t-72.5 106.5t-26.5 149.5zM340 348q0 -59 47 -82.5t119 -23.5q61 0 102 20.5t65.5 54t37 76.5t16.5 88q-68 6 -122 6q-33 0 -61 -2q-74 -6 -118.5 -24.5t-65 -47t-20.5 -65.5z" />
<glyph unicode="b" horiz-adv-x="1159" d="M113 467v1110h280v-465q47 57 120 82t144 25q197 0 293.5 -116t96.5 -310v-324q0 -252 -120 -363.5t-349 -111.5q-231 0 -348 111.5t-117 361.5zM393 473q0 -109 38 -169t147 -60q84 0 136 50t52 181v285q0 111 -47 156t-135 47q-92 0 -141.5 -49.5t-49.5 -151.5v-289z " />
<glyph unicode="c" horiz-adv-x="1132" d="M102 457v270q0 485 478 485q238 0 349 -105.5t111 -348.5h-266q0 104 -42 154.5t-146 50.5q-117 0 -159 -61.5t-42 -174.5v-262q0 -113 38 -174.5t148 -61.5q111 0 156 49.5t47 157.5h266q0 -244 -115.5 -350t-353.5 -106q-240 0 -354.5 113.5t-114.5 363.5z" />
<glyph unicode="d" horiz-adv-x="1202" d="M111 461v311q0 215 101 333t304 118q74 0 143.5 -23.5t104.5 -83.5v461h280v-1577h-231l-20 133q-35 -66 -108 -102.5t-177 -36.5q-90 0 -163 25.5t-125 82t-80.5 144.5t-28.5 215zM391 475q0 -131 49 -181t133 -50q104 0 147.5 68.5t43.5 172.5v277q0 111 -48 156 t-134 45q-92 0 -141.5 -46.5t-49.5 -156.5v-285z" />
<glyph unicode="e" horiz-adv-x="1155" d="M109 467v274q0 229 114.5 350t354.5 121t354.5 -112.5t114.5 -358.5v-239h-656v-31q0 -74 13.5 -119t39 -69.5t60.5 -33.5t78 -9q100 0 144 33.5t44 97.5h277q0 -193 -115 -284t-354 -91q-240 0 -354.5 112.5t-114.5 358.5zM391 733h383q0 57 -7 101.5t-27.5 74t-57.5 45 t-96 15.5q-61 0 -100.5 -16.5t-59.5 -47.5t-27.5 -74t-7.5 -98z" />
<glyph unicode="f" horiz-adv-x="743" d="M121 -2v1169q0 104 37 190.5t109.5 146t180.5 86.5q62 15 135 15q53 0 111 -8v-247q-42 7 -79 7q-85 0 -138 -37q-76 -54 -76 -157v-63h261v-258h-261v-844h-280z" />
<glyph unicode="g" horiz-adv-x="1124" d="M102 446v302q0 125 28 214t80 145t124 81.5t162 25.5q104 0 171.5 -36.5t102.5 -102.5l21 133h231v-1239q0 -236 -118 -349.5t-339 -113.5q-223 0 -329.5 95.5t-106.5 287.5h268q0 -143 168 -143q111 0 153 56.5t42 168.5v146q-33 -49 -91.5 -86t-164.5 -37 q-188 0 -295 109.5t-107 342.5zM383 481q0 -129 43 -184t131 -55q109 0 148.5 64.5t39.5 180.5v236q0 104 -39.5 173t-144.5 69q-84 0 -131 -50.5t-47 -181.5v-252z" />
<glyph unicode="h" horiz-adv-x="1142" d="M113 0v1577h280v-465q47 57 114.5 82t139.5 25q197 0 290 -116t93 -310v-793h-280v760q0 111 -44 156t-133 47q-180 0 -180 -201v-762h-280z" />
<glyph unicode="i" horiz-adv-x="573" d="M129 1452q0 78 49 117t109.5 39t109.5 -39t49 -117t-49 -116t-109.5 -38t-109.5 38t-49 116zM145 -2v1184h281v-1184h-281z" />
<glyph unicode="j" horiz-adv-x="585" d="M2 -145q43 0 75 5t51 26.5t28.5 61.5t9.5 111v1133h280v-1126q0 -135 -23.5 -222.5t-76.5 -137.5t-137 -70.5t-207 -20.5v240zM150 1452q0 78 49 117t109.5 39t109.5 -39t49 -117t-49 -116t-109.5 -38t-109.5 38t-49 116z" />
<glyph unicode="k" horiz-adv-x="1134" d="M113 0v1581h280v-803h76l299 430h315l-387 -542l428 -666h-315l-336 524h-80v-524h-280z" />
<glyph unicode="l" horiz-adv-x="626" d="M143 442v1137h281v-1133q0 -100 26.5 -138t114.5 -38v-270q-123 0 -203.5 20.5t-129 70.5t-69 136t-20.5 215z" />
<glyph unicode="m" horiz-adv-x="1890" d="M152 0v1208h243l19 -123q50 66 126 100q66 30 137 30q10 0 21 -1q90 0 172 -33.5t125 -119.5q47 72 137.5 114t206.5 42q186 0 293 -114t107 -360v-743h-281v743q0 117 -46 168.5t-134 51.5q-41 0 -75 -10.5t-59.5 -35t-39.5 -66.5t-17 -106v-745h-280v743 q0 117 -46 168.5t-134 51.5q-82 0 -138.5 -46.5t-56.5 -162.5v-754h-280z" />
<glyph unicode="n" horiz-adv-x="1239" d="M162 0v1208h244l14 -123q57 68 132 100t153 32q74 0 144.5 -21.5t125.5 -75t89 -145.5t34 -230v-745h-279v743q0 117 -47 168.5t-135 51.5q-82 0 -138.5 -46.5t-56.5 -162.5v-754h-280z" />
<glyph unicode="o" horiz-adv-x="1142" d="M102 451v290q0 240 115 355.5t354 115.5q240 0 354.5 -112.5t114.5 -358.5v-290q0 -246 -114.5 -358.5t-354.5 -112.5t-354.5 112.5t-114.5 358.5zM385 465q0 -113 37.5 -174.5t148.5 -61.5t149 61.5t38 174.5v262q0 113 -38 174.5t-149 61.5t-148.5 -61.5t-37.5 -174.5 v-262z" />
<glyph unicode="p" horiz-adv-x="1193" d="M135 -367v1575h232l20 -131q35 66 107.5 103t177.5 37q88 0 161.5 -26t126 -82t81 -145.5t28.5 -213.5v-312q0 -215 -101.5 -332.5t-303.5 -117.5q-74 0 -143.5 23.5t-104.5 82.5v-461h-281zM416 449q0 -111 48 -156t134 -45q92 0 141 46t49 157v284q0 131 -49 181.5 t-133 50.5q-104 0 -147 -69t-43 -173v-276z" />
<glyph unicode="q" horiz-adv-x="1163" d="M109 420v323q0 252 120 364t349 112t346.5 -112t117.5 -362v-1110h-280v465q-47 -57 -120 -81.5t-144 -24.5q-197 0 -293 115.5t-96 310.5zM389 453q0 -111 47 -156t135 -47q92 0 141.5 49t49.5 152v288q0 109 -39 169.5t-145 60.5q-84 0 -136.5 -50.5t-52.5 -181.5v-284 z" />
<glyph unicode="r" horiz-adv-x="788" d="M123 -2v1210h258l12 -127q18 31 52 59.5t78 47.5q43 20 97 28q24 3 49 3q30 0 60 -5v-296q-33 4 -64 4q-33 0 -63 -4q-59 -8 -103 -37t-70 -76t-26 -115v-692h-280z" />
<glyph unicode="s" horiz-adv-x="1067" d="M78 373h284q4 -63 44 -98t143 -35q86 0 128 38.5t42 83.5q0 39 -23.5 60.5t-61.5 33t-88 17.5t-106 12q-66 8 -128 29t-110 58.5t-78 98t-30 150.5q0 102 35 176t95.5 122t144.5 71.5t182 23.5q111 0 193.5 -29.5t137 -81.5t81 -122t26.5 -152h-274q0 70 -47 102t-115 32 q-82 0 -128 -32t-46 -95q0 -49 24.5 -74t65.5 -36t95 -14t116 -10q61 -6 118.5 -28.5t103.5 -62.5t74 -99t28 -139q0 -98 -37 -170t-99.5 -118t-147.5 -68.5t-183 -22.5q-217 0 -338 101.5t-121 277.5z" />
<glyph unicode="t" horiz-adv-x="684" d="M131 442v975l281 31v-236h204v-256h-204v-510q0 -49 6 -90t27.5 -68.5t62.5 -38.5q24 -6 58 -7q25 0 55 4v-246q-62 -7 -116 -7q-61 0 -111 9q-94 16 -152 69.5t-84.5 144.5t-26.5 226z" />
<glyph unicode="u" horiz-adv-x="1220" d="M135 465v745h279v-743q0 -117 47 -168t135 -51q82 0 138.5 46t56.5 163v753h286v-1208h-250l-14 123q-57 -68 -132 -99.5t-153 -31.5q-74 0 -144.5 21.5t-125.5 74.5t-89 144.5t-34 230.5z" />
<glyph unicode="v" horiz-adv-x="999" d="M6 1208h293l109 -362q31 -123 54 -257t40 -251q16 117 39.5 250t54.5 258l106 362h293l-370 -1210h-248z" />
<glyph unicode="w" horiz-adv-x="1585" d="M16 1208h291l107 -362q31 -123 51 -257t37 -251q6 41 11 87t12 103.5t20.5 129t36.5 167.5q18 78 47.5 173.5t62.5 209.5h209l92 -387q29 -123 51.5 -242.5t38.5 -240.5q16 117 38 251t53 257l104 362h289l-350 -1210h-269l-71 264l-84 426l-84 -430l-72 -260h-266z" />
<glyph unicode="x" horiz-adv-x="1079" d="M18 0l365 614l-350 594h295l110 -186q12 -18 27.5 -49t31 -62.5t28 -59.5t16.5 -40q6 16 19 46t28.5 61.5t32 61.5t26.5 48l107 180h290l-350 -592l369 -616h-299l-107 180q-12 18 -29.5 50t-33.5 67t-31.5 67.5t-23.5 53.5q-10 -25 -25.5 -58.5t-34 -68.5t-36 -65.5 t-27.5 -49.5l-105 -176h-293z" />
<glyph unicode="y" horiz-adv-x="1044" d="M31 1208h293l108 -362q31 -123 54.5 -257t39.5 -251q16 117 40 250t55 258l106 362h293l-358 -1194h2l-66 -233q-29 -102 -74 -160.5t-104 -80.5q-42 -16 -90 -16q-21 0 -44 3q-73 10 -159 45l43 207q27 -6 53.5 -12.5t50 -4.5t43 18.5t29.5 57.5l47 170z" />
<glyph unicode="z" horiz-adv-x="1044" d="M63 0v33l523 928h-469v245h887v-35l-521 -909h521v-262h-941z" />
<glyph unicode="{" horiz-adv-x="655" d="M41 639v217q45 0 73.5 13.5t43 34t19.5 46t5 49.5v340q-8 109 26 181.5t95.5 111.5t143 46.5t174.5 -17.5v-213q-37 4 -71 9t-58.5 -2t-40 -34.5t-15.5 -87.5v-334v-71.5t-6 -66.5t-20.5 -60.5t-42.5 -50.5q29 -23 44 -51.5t21 -61.5t6 -69v-70v-408q0 -57 15.5 -83.5 t40 -35t58.5 -4.5t71 8v-213q-92 -25 -172 -21.5t-139.5 39.5t-94.5 109.5t-35 194.5v412q0 25 -5 50t-19.5 45.5t-43 34t-73.5 13.5z" />
<glyph unicode="|" horiz-adv-x="563" d="M139 -385v1966h285v-1966h-285z" />
<glyph unicode="}" horiz-adv-x="690" d="M55 -25q37 -4 71 -8t58.5 4.5t40 35t15.5 83.5v408v70.5t6 68.5t21.5 61.5t43.5 51.5q-29 23 -43 51t-20 60t-6 67v71v334q0 59 -15.5 87t-40 35t-58.5 2t-71 -9v213q92 25 174 17.5t143.5 -46.5t95.5 -111.5t26 -181.5v-340q0 -25 5 -50t19.5 -45.5t42 -34t74.5 -13.5 v-217q-47 0 -74.5 -13.5t-42 -34t-19.5 -46t-5 -49.5v-412q0 -121 -35 -194.5t-94.5 -109.5t-139.5 -39t-172 21v213z" />
<glyph unicode="~" horiz-adv-x="1323" d="M109 535q43 129 128 207.5t189 78.5q70 0 135 -33h-2l240 -116q27 -14 55 -15q51 0 109 134l204 -80q-47 -129 -123.5 -206t-179.5 -77q-74 0 -147 33l-242 121q-27 10 -59 10q-25 0 -53.5 -30t-59.5 -109z" />
<glyph unicode="&#xa2;" horiz-adv-x="1101" d="M92 451v290q0 391 332 457v176h287v-176q160 -35 239.5 -145.5t79.5 -311.5h-272q0 104 -42 163t-147 59q-117 0 -155.5 -61.5t-38.5 -174.5v-262q0 -113 38 -174.5t148 -61.5q111 0 153 58.5t44 163.5h272q0 -203 -81 -313.5t-240 -143.5v-162h-287v160 q-166 31 -248 142.5t-82 316.5z" />
<glyph unicode="&#xa3;" horiz-adv-x="1107" d="M35 0v256h180v385h-180v256h180v229q0 205 107.5 321t312.5 116q88 0 162.5 -22.5t128 -73t83 -133.5t27.5 -204h-254q0 53 -13 86t-33.5 51.5t-47 24.5t-53.5 6q-59 0 -102.5 -39.5t-43.5 -125.5v-236h359v-256h-359v-387h551v-254h-1005z" />
<glyph unicode="&#xa5;" horiz-adv-x="1050" d="M-16 1577h305l123 -291l114 -338l115 346l117 283h305l-311 -717h135v-225h-221v-84h221v-225h-221v-328h-281v328h-223v225h223v84h-223v225h135z" />
<glyph unicode="&#xa8;" horiz-adv-x="911" d="M94 1479q0 70 47 105.5t103.5 36.5t103.5 -34t47 -108q0 -68 -47 -104t-103.5 -37t-103.5 34t-47 107zM547 1479q0 70 47 105.5t103.5 36.5t103.5 -34t47 -108q0 -68 -47 -104t-103.5 -37t-103.5 34t-47 107z" />
<glyph unicode="&#xa9;" horiz-adv-x="1724" d="M106 762q0 139 48.5 273t144.5 238.5t240.5 168t339.5 61.5l-33 -2q180 2 317 -57.5t229.5 -160.5t138.5 -232t46 -275q0 -154 -45 -290t-136 -239.5t-228.5 -163.5t-321.5 -60t-322.5 57t-231.5 156.5t-139.5 234.5t-46.5 291zM305 758q0 -117 34 -219.5t101.5 -177 t169 -117.5t236.5 -43t235.5 43t166 118.5t98 181t32.5 230.5q0 117 -33.5 217.5t-101 173t-167 113.5t-230.5 41q-135 0 -236.5 -42t-169 -118t-101.5 -178t-34 -223zM510 657v224q0 172 91 246.5t243 74.5q145 0 232 -74.5t93 -253.5l-196 -2q-4 92 -37 119t-92 27 q-66 0 -99.5 -24.5t-33.5 -112.5v-224q0 -90 33.5 -119.5t99.5 -29.5q33 0 56.5 5t39.5 22.5t24.5 48t8.5 82.5h194q0 -94 -19.5 -159t-58 -106t-99 -59t-146.5 -18q-174 0 -254 77.5t-80 255.5z" />
<glyph unicode="&#xab;" horiz-adv-x="1056" d="M43 680l289 461h280l-286 -463l286 -461h-280zM430 680l289 461h280l-286 -463l286 -461h-280z" />
<glyph unicode="&#xad;" d="M125 578v235h842v-235h-842z" />
<glyph unicode="&#xae;" horiz-adv-x="1716" d="M88 719q0 156 50 294t146.5 242.5t237 165t320.5 60.5q182 0 322.5 -60.5t236.5 -165t145 -243t49 -293.5q0 -156 -49 -294t-145 -242.5t-236.5 -165t-322.5 -60.5q-180 0 -320.5 60.5t-237 165t-146.5 242.5t-50 294zM299 723q0 -121 36 -227.5t104.5 -184.5t170 -123 t232.5 -45t232.5 45t171 123t105 183.5t35.5 226.5t-35.5 226.5t-105 184t-171 123.5t-232.5 45t-231.5 -45t-170 -122.5t-105.5 -183t-36 -226.5zM569 307v848h287q63 0 120.5 -12.5t98.5 -43t65.5 -86t24.5 -141.5v-16q0 -104 -32.5 -168.5t-114.5 -93.5l166 -285h-228 l-122 248h-70v-250h-195zM764 737h92q55 0 82 23.5t27 95.5v16q0 33 -6.5 52.5t-20.5 29t-34.5 12.5t-47.5 5h-92v-234z" />
<glyph unicode="&#xb4;" horiz-adv-x="501" d="M70 1280l116 279h283l-156 -279h-243z" />
<glyph unicode="&#xb8;" horiz-adv-x="602" d="M-23 -367l93 144q18 -18 53 -33.5t70.5 -19t67.5 9t44 49.5q10 47 -48 77.5t-146 35.5l67 221h213l-39 -119q66 -4 107 -28.5t61.5 -61.5t23.5 -82t-7 -90q-23 -90 -90.5 -143.5t-152.5 -66.5t-172 13.5t-145 93.5z" />
<glyph unicode="&#xbb;" horiz-adv-x="1056" d="M53 217l287 461l-287 463h281l289 -461l-289 -463h-281zM440 217l287 461l-287 463h281l289 -461l-289 -463h-281z" />
<glyph unicode="&#xc7;" horiz-adv-x="1275" d="M121 467v641q0 125 28.5 214t91 146.5t163 84t243.5 26.5t244.5 -27.5t167 -86t96.5 -151.5t31 -224h-283q0 57 -9 102t-37 75.5t-78 46t-132 15.5q-78 0 -125 -15.5t-73.5 -46t-36 -74.5t-9.5 -99v-613q0 -55 9.5 -99t36 -75t73.5 -46t125 -15q76 0 126 15t79 46t40 76 t11 104h283q0 -233 -102.5 -348.5t-325.5 -138.5l-27 -78q66 -4 107 -25.5t61.5 -55.5t23.5 -74.5t-8 -83.5q-23 -84 -90 -132.5t-152 -60.5t-172 12.5t-145 85.5l93 131q18 -16 53 -30.5t70.5 -17.5t67.5 8.5t44 46.5q10 43 -48 71.5t-147 30.5l58 172q-227 18 -326.5 131 t-99.5 336z" />
<glyph unicode="&#xd6;" horiz-adv-x="1312" d="M121 457v667q0 125 28.5 214t91 146.5t163 84t243.5 26.5q285 0 412 -110.5t127 -360.5v-667q0 -246 -128 -358.5t-411 -112.5q-281 0 -403.5 113.5t-122.5 357.5zM283 1819q0 70 47 105.5t103 36.5t103.5 -34t47.5 -108q0 -68 -47.5 -104t-103.5 -37t-103 34t-47 107z M403 471q0 -55 9.5 -99t36 -75t73.5 -46t125 -15q76 0 126 15t79 46t40 75t11 99v639q0 53 -9 97t-37 75t-78 47.5t-132 16.5q-78 0 -125 -16.5t-73.5 -47.5t-36 -75t-9.5 -97v-639zM735 1819q0 70 47 105.5t103.5 36.5t103.5 -34t47 -108q0 -68 -47 -104t-103.5 -37 t-103.5 34t-47 107z" />
<glyph unicode="&#xdc;" horiz-adv-x="1304" d="M123 467v1108h283v-1094q0 -113 53 -179t180 -66t187.5 66.5t60.5 178.5v1094h282v-1108q0 -246 -140 -363.5t-390 -117.5t-383 117.5t-133 363.5zM268 1829q0 70 47 105.5t103.5 36.5t103.5 -33.5t47 -108.5q0 -68 -47 -103.5t-103.5 -36.5t-103.5 33.5t-47 106.5z M721 1829q0 70 47 105.5t103.5 36.5t103.5 -33.5t47 -108.5q0 -68 -47 -103.5t-103.5 -36.5t-103.5 33.5t-47 106.5z" />
<glyph unicode="&#xe7;" horiz-adv-x="1132" d="M102 457v270q0 485 478 485q238 0 349 -105.5t111 -348.5h-266q0 104 -42 154.5t-146 50.5q-117 0 -159 -61.5t-42 -174.5v-262q0 -113 38 -174.5t148 -61.5q111 0 156 49.5t47 157.5h266q0 -215 -88 -321.5t-270 -128.5l-23 -72q63 -4 103.5 -26.5t61 -56.5t23.5 -75 t-7 -84q-23 -82 -89.5 -128t-149.5 -56t-167 14.5t-141 85.5l90 129q18 -16 52 -31.5t70 -19.5t65.5 6.5t41.5 42.5q10 43 -46 73t-142 34l51 164q-190 20 -281.5 133.5t-91.5 337.5z" />
<glyph unicode="&#xf6;" horiz-adv-x="1142" d="M102 451v290q0 240 115 355.5t354 115.5q240 0 354.5 -112.5t114.5 -358.5v-290q0 -246 -114.5 -358.5t-354.5 -112.5t-354.5 112.5t-114.5 358.5zM211 1454q0 68 46 103.5t100.5 36.5t100.5 -33.5t46 -106.5q0 -66 -46 -100.5t-100.5 -35.5t-100.5 31.5t-46 104.5z M385 465q0 -113 37.5 -174.5t148.5 -61.5t149 61.5t38 174.5v262q0 113 -38 174.5t-149 61.5t-148.5 -61.5t-37.5 -174.5v-262zM651 1454q0 68 46 103.5t100.5 36.5t100.5 -33.5t46 -106.5q0 -66 -46 -100.5t-100.5 -35.5t-100.5 31.5t-46 104.5z" />
<glyph unicode="&#xfc;" horiz-adv-x="1220" d="M135 465v745h279v-743q0 -117 47 -168t135 -51q82 0 138.5 46t56.5 163v753h286v-1208h-250l-14 123q-57 -68 -132 -99.5t-153 -31.5q-74 0 -144.5 21.5t-125.5 74.5t-89 144.5t-34 230.5zM238 1479q0 70 47 105.5t103 36.5t103.5 -34t47.5 -108q0 -68 -47.5 -104 t-103.5 -37t-103 34t-47 107zM690 1479q0 70 47 105.5t103.5 36.5t103.5 -34t47 -108q0 -68 -47 -104t-103.5 -37t-103.5 34t-47 107z" />
<glyph unicode="&#x11e;" horiz-adv-x="1292" d="M117 481v633q0 121 28.5 209t91 146.5t163 87t243.5 28.5t244.5 -25.5t167 -83t96.5 -146.5t31 -216h-283q0 55 -9 96t-37 69t-78 42t-132 14q-78 0 -125 -16t-73.5 -47t-36 -75t-9.5 -97v-619q0 -55 9.5 -99t36 -75t73.5 -46t125 -15q154 0 215.5 62.5t61.5 178.5v154 h-269v256h531v-410q0 -260 -129 -377.5t-410 -117.5q-141 0 -240.5 28.5t-163 88t-93 152.5t-29.5 220zM358 1964h211q0 -41 19.5 -67.5t68.5 -26.5t67.5 26.5t18.5 67.5h213q-2 -141 -73.5 -207.5t-225.5 -66.5t-225.5 67.5t-73.5 206.5z" />
<glyph unicode="&#x11f;" horiz-adv-x="1124" d="M102 446v302q0 125 28 214t80 145t124 81.5t162 25.5q104 0 171.5 -36.5t102.5 -102.5l21 133h231v-1239q0 -236 -118 -349.5t-339 -113.5q-223 0 -329.5 95.5t-106.5 287.5h268q0 -143 168 -143q111 0 153 56.5t42 168.5v146q-33 -49 -91.5 -86t-164.5 -37 q-188 0 -295 109.5t-107 342.5zM274 1583h211q0 -41 19.5 -67.5t68.5 -26.5t67.5 26.5t18.5 67.5h213q-2 -141 -73.5 -207.5t-225.5 -66.5t-225.5 67.5t-73.5 206.5zM383 481q0 -129 43 -184t131 -55q109 0 148.5 64.5t39.5 180.5v236q0 104 -39.5 173t-144.5 69 q-84 0 -131 -50.5t-47 -181.5v-252z" />
<glyph unicode="&#x131;" horiz-adv-x="557" d="M145 -2v1184h281v-1184h-281z" />
<glyph unicode="&#x15e;" horiz-adv-x="1236" d="M90 428h285q4 -92 54 -139t185 -47q129 0 188.5 57t59.5 193q0 70 -37 107.5t-94 58t-125.5 27.5t-132.5 15q-68 8 -133.5 32t-117.5 73t-84 129t-32 203q0 223 130.5 335.5t373.5 112.5q106 0 194.5 -21.5t153 -70.5t103.5 -129t49 -199h-285q-6 100 -58 136t-157 36 q-117 0 -168 -43t-51 -155q0 -74 29 -113t81 -57.5t124.5 -26.5t162.5 -22q68 -10 132.5 -33t114.5 -69t80 -121.5t30 -194.5q0 -242 -95.5 -364t-310.5 -146l-24 -74q63 -4 103 -25.5t60.5 -54.5t23.5 -72.5t-7 -80.5q-23 -80 -89.5 -127t-149.5 -59.5t-166.5 11 t-141.5 82.5l90 129q18 -18 52 -31.5t70 -16.5t65.5 8.5t42.5 44.5q10 43 -46.5 70.5t-142.5 31.5l51 158q-125 8 -208.5 45t-135 95t-74 135t-22.5 167z" />
<glyph unicode="&#x15f;" horiz-adv-x="1067" d="M78 373h284q4 -63 44 -98t143 -35q86 0 128 38.5t42 83.5q0 39 -23.5 60.5t-61.5 33t-88 17.5t-106 12q-66 8 -128 29t-110 58.5t-78 98t-30 150.5q0 102 35 176t95.5 122t144.5 71.5t182 23.5q111 0 193.5 -29.5t137 -81.5t81 -122t26.5 -152h-274q0 70 -47 102t-115 32 q-82 0 -128 -32t-46 -95q0 -49 24.5 -74t65.5 -36t95 -14t116 -10q61 -6 118.5 -28.5t103.5 -62.5t74 -99t28 -139q0 -84 -27 -147.5t-73 -109.5t-109.5 -74t-139.5 -40l-24 -70q61 -4 100 -24.5t58.5 -51t22.5 -68.5t-7 -77q-20 -78 -85 -122t-143.5 -55t-159.5 11.5 t-136 79.5l86 121q16 -16 49 -28.5t66.5 -15.5t63 7t42.5 41q8 41 -46.5 66.5t-135.5 29.5l51 152q-180 18 -279.5 116.5t-99.5 258.5z" />
<glyph unicode="&#x18f;" horiz-adv-x="1292" d="M117 487v410h782v203q0 53 -9 97t-36 75t-75 47t-124 16q-82 0 -132 -14t-77.5 -42t-37 -69t-9.5 -96h-282q0 127 30.5 216t96 146.5t167 83t244.5 25.5t242.5 -28.5t163 -87t92.5 -146.5t29 -209v-633q0 -127 -30 -220t-93.5 -152.5t-162.5 -88t-241 -28.5 q-281 0 -409.5 117.5t-128.5 377.5zM379 487q0 -117 61.5 -179t214.5 -62q76 0 124 15t75 46t36 75t9 99v160h-520v-154z" />
<glyph unicode="&#x259;" horiz-adv-x="1155" d="M109 467v240h655v30q0 74 -13.5 119t-39 69.5t-60.5 34t-78 9.5q-100 0 -144 -34t-44 -97h-276q0 193 114.5 283.5t354.5 90.5t354.5 -112.5t114.5 -358.5v-274q0 -229 -115 -350t-354 -121q-240 0 -354.5 112.5t-114.5 358.5zM381 475q0 -57 7 -101t27.5 -74t57.5 -45 t96 -15q61 0 100.5 16t60 47t27.5 74t7 98h-383z" />
<glyph unicode="&#x2c6;" horiz-adv-x="727" d="M25 1296v21l290 264h131l289 -264v-21h-262l-92 93l-96 -93h-260z" />
<glyph unicode="&#x2da;" horiz-adv-x="655" d="M86 1378q0 59 20.5 104.5t55.5 76t79 46t93 15.5t95 -15.5t80 -45t54.5 -74.5t20.5 -105q0 -59 -20.5 -104t-55.5 -76t-80 -47t-96 -16t-96.5 16t-79 47t-52 76t-18.5 102zM246 1378.5q0 -32.5 22.5 -60.5t65.5 -28q47 0 69.5 28t21.5 60.5t-23.5 60t-67.5 27.5 q-43 0 -65.5 -27.5t-22.5 -60z" />
<glyph unicode="&#x2dc;" horiz-adv-x="843" d="M82 1401q14 49 45 91t73 67.5t90 30.5t101 -19l101 -49q23 -10 49 -2t45 55l172 -72q-12 -51 -39 -96t-64 -74.5t-86 -39t-108 15.5l-111 53q-16 10 -49 5t-53 -52z" />
<glyph unicode="&#x2000;" horiz-adv-x="985" />
<glyph unicode="&#x2001;" horiz-adv-x="1971" />
<glyph unicode="&#x2002;" horiz-adv-x="985" />
<glyph unicode="&#x2003;" horiz-adv-x="1971" />
<glyph unicode="&#x2004;" horiz-adv-x="657" />
<glyph unicode="&#x2005;" horiz-adv-x="492" />
<glyph unicode="&#x2006;" horiz-adv-x="328" />
<glyph unicode="&#x2007;" horiz-adv-x="328" />
<glyph unicode="&#x2008;" horiz-adv-x="246" />
<glyph unicode="&#x2009;" horiz-adv-x="394" />
<glyph unicode="&#x200a;" horiz-adv-x="109" />
<glyph unicode="&#x2010;" d="M125 578v235h842v-235h-842z" />
<glyph unicode="&#x2011;" d="M125 578v235h842v-235h-842z" />
<glyph unicode="&#x2012;" d="M125 578v235h842v-235h-842z" />
<glyph unicode="&#x2013;" horiz-adv-x="1255" d="M158 578v235h940v-235h-940z" />
<glyph unicode="&#x2014;" horiz-adv-x="1458" d="M158 578v235h1142v-235h-1142z" />
<glyph unicode="&#x2018;" horiz-adv-x="600" d="M121 1190l131 391h242l-95 -391h-278z" />
<glyph unicode="&#x2019;" horiz-adv-x="587" d="M125 1188l94 391h279l-131 -391h-242z" />
<glyph unicode="&#x201a;" horiz-adv-x="401" d="M-4 -195q43 33 63.5 65t26.5 67.5t4 78.5t-2 99h238q16 -180 -44.5 -289t-201.5 -162z" />
<glyph unicode="&#x201c;" horiz-adv-x="903" d="M92 1190l125 389h225l-88 -389h-262zM446 1190l123 389h228l-88 -389h-263z" />
<glyph unicode="&#x201d;" horiz-adv-x="923" d="M129 1190l88 389h262l-123 -389h-227zM483 1190l88 389h263l-125 -389h-226z" />
<glyph unicode="&#x201e;" horiz-adv-x="722" d="M-4 -195q43 33 63.5 65t26.5 67.5t4 78.5t-2 99h238q16 -180 -44.5 -289t-201.5 -162zM360 -195q43 33 63.5 65t27 67.5t4.5 78.5t-2 99h237q16 -180 -44 -289t-202 -162z" />
<glyph unicode="&#x2026;" horiz-adv-x="1478" d="M66 147q0 78 49 117t109.5 39t109.5 -39t49 -117t-49 -115.5t-109.5 -37.5t-109.5 37.5t-49 115.5zM559 147q0 78 49 117t109.5 39t110 -39t49.5 -117t-49.5 -115.5t-110 -37.5t-109.5 37.5t-49 115.5zM1049 147q0 78 49 117t109.5 39t109.5 -39t49 -117t-49 -115.5 t-109.5 -37.5t-109.5 37.5t-49 115.5z" />
<glyph unicode="&#x202f;" horiz-adv-x="394" />
<glyph unicode="&#x2039;" horiz-adv-x="774" d="M100 680l289 461h281l-287 -463l287 -461h-281z" />
<glyph unicode="&#x203a;" horiz-adv-x="778" d="M109 217l286 461l-286 463h280l289 -461l-289 -463h-280z" />
<glyph unicode="&#x205f;" horiz-adv-x="492" />
<glyph unicode="&#x20ac;" d="M55 567v162h135v105h-135v161h135v179q0 88 40 162.5t104.5 129t148.5 85t174 30.5h123q145 0 252 -65l-127 -224q-31 14 -49 20.5t-40.5 9.5t-58.5 3h-100q-80 0 -133 -41t-53 -145v-144h410v-161h-410v-105h410v-162h-410v-112q0 -41 14.5 -78t39 -64.5t58 -44 t74.5 -16.5h123q35 0 71 8t71 33l120 -223q-53 -31 -121.5 -53.5t-140.5 -22.5h-123q-96 0 -181 27.5t-148.5 81t-100.5 130t-37 175.5v159h-135z" />
<glyph unicode="&#x2122;" horiz-adv-x="1087" d="M51 1446v137h387v-137h-123v-524h-141v524h-123zM494 920v665h147l115 -219l102 219h156v-665h-142v227l2 121l-94 -236h-49l-98 234q0 -8 1 -24.5t1 -35v-35v-24.5v-227h-141z" />
<glyph unicode="&#x25fc;" horiz-adv-x="1208" d="M0 0v1208h1208v-1208h-1208z" />
</font>
</defs>
</svg>
