<?xml version="1.0" standalone="no"?>
<!DOCTYPE svg PUBLIC "-//W3C//DTD SVG 1.1//EN" "http://www.w3.org/Graphics/SVG/1.1/DTD/svg11.dtd" >
<svg xmlns="http://www.w3.org/2000/svg">
<metadata></metadata>
<defs>
<font id="kelson_sanslight" horiz-adv-x="831" >
<font-face units-per-em="2048" ascent="1536" descent="-512" />
<missing-glyph horiz-adv-x="514" />
<glyph horiz-adv-x="0" />
<glyph horiz-adv-x="0" />
<glyph unicode="&#xd;" horiz-adv-x="548" />
<glyph unicode=" "  horiz-adv-x="514" />
<glyph unicode="&#x09;" horiz-adv-x="514" />
<glyph unicode="&#xa0;" horiz-adv-x="514" />
<glyph unicode="!" horiz-adv-x="382" d="M123 68q0 37 23.5 55t52 18t52 -18.5t23.5 -54.5q0 -37 -23.5 -55.5t-52 -18.5t-52 18.5t-23.5 55.5zM139 248v1337h109v-1337h-109z" />
<glyph unicode="&#x22;" horiz-adv-x="407" d="M72 1585h96l-10 -348h-84zM262 1585h96l-10 -348h-84z" />
<glyph unicode="#" horiz-adv-x="1265" d="M66 500l18 94h197l84 412h-197l18 92h197l94 465h101l-95 -465h432l95 465h98l-94 -463h200l-18 -94h-201l-84 -412h201l-18 -94h-199l-102 -500h-101l103 500h-433l-102 -500h-100l102 500h-196zM381 594h432l84 412h-432z" />
<glyph unicode="$" horiz-adv-x="1032" d="M90 358h98q0 -147 82 -211.5t242 -64.5q98 0 165.5 21.5t109.5 66.5t60.5 116.5t18.5 174.5q0 104 -34.5 167.5t-93 98.5t-137.5 49.5t-167 22.5q-61 6 -121.5 25.5t-109.5 62.5t-79 114.5t-30 182.5q0 209 97.5 307t287.5 108v191h86v-191q76 -4 141.5 -22t113.5 -59 t78 -108t34 -165h-98q-2 145 -86 204.5t-222 59.5q-80 0 -141 -14t-104 -51t-64.5 -100.5t-21.5 -159.5q0 -109 30.5 -166t85 -86t130 -39t165.5 -21q174 -23 269.5 -131t95.5 -282q0 -135 -29 -224.5t-82 -143.5t-128 -77.5t-167 -27.5v-179h-86v177q-195 8 -292 98 t-97 276z" />
<glyph unicode="%" horiz-adv-x="1308" d="M61 1206v135q0 258 254 258q129 0 191.5 -61t62.5 -197v-135q0 -256 -254 -256q-129 0 -191.5 60.5t-62.5 195.5zM143 1260q0 -61 6.5 -104.5t25 -69t52 -38t88.5 -12.5q53 0 87 12.5t52.5 39t25.5 68.5t7 101v29q0 61 -6 104.5t-24.5 70t-52 38.5t-89.5 12 q-53 0 -86.5 -12t-52 -38.5t-26 -68.5t-7.5 -102v-30zM266 -2l668 1622h94l-670 -1626zM719 246v135q0 258 254 258q129 0 191.5 -61.5t62.5 -196.5v-135q0 -256 -254 -256q-129 0 -191.5 60.5t-62.5 195.5zM801 299q0 -61 6 -104t24.5 -69t52.5 -38t89 -12q53 0 87 12 t52 39t25.5 69t7.5 101v29q0 61 -6 104t-24.5 69.5t-52.5 39t-89 12.5q-53 0 -87 -12.5t-52.5 -39t-25.5 -68.5t-7 -101v-31z" />
<glyph unicode="&#x26;" horiz-adv-x="1144" d="M106 444q0 82 18.5 143.5t50.5 108.5t73 83t88 65q-92 49 -146.5 136t-54.5 206q0 84 27.5 156.5t78 126t121 83t156.5 29.5q80 0 148.5 -18.5t118 -62.5t77 -116.5t27.5 -183.5h-96q-4 137 -64.5 212t-210.5 75q-74 0 -126 -25.5t-86 -67.5t-49 -95.5t-15 -110.5 q0 -55 20.5 -109.5t57 -95.5t86 -66.5t106.5 -25.5h539v-92h-160v-385q0 -63 4 -124t22.5 -107t57.5 -69.5t110 -11.5v-104q-127 -14 -187 38t-79 152q-57 -86 -132 -140t-177 -54q-90 0 -164 25.5t-127 81t-83 140.5t-30 203zM215 442q0 -170 78 -254t217 -84 q57 0 108.5 26t89 69t60.5 100t23 119v381h-281q-59 0 -112.5 -28t-94.5 -75t-64.5 -112.5t-23.5 -141.5z" />
<glyph unicode="'" horiz-adv-x="235" d="M72 1585h96l-10 -348h-84z" />
<glyph unicode="(" horiz-adv-x="430" d="M119 256v967q0 111 13 183.5t44 115.5t82 60t125 17v-88q-57 0 -90 -16t-48.5 -52t-19.5 -89.5t-4 -126.5v-975q0 -74 4 -127t19.5 -89t48.5 -52.5t90 -16.5v-88q-74 0 -125 17.5t-82 60.5t-44 115.5t-13 183.5z" />
<glyph unicode=")" horiz-adv-x="448" d="M63 -33q57 0 90 16.5t48.5 52.5t19.5 89t4 127v975q0 74 -4 127t-19.5 89t-48 52t-90.5 16v88q74 0 125.5 -17t82 -60t44 -116t13.5 -183v-967q0 -111 -13.5 -183.5t-44 -115.5t-82 -60.5t-125.5 -17.5v88z" />
<glyph unicode="*" horiz-adv-x="499" d="M59 1260q35 35 74 67.5t70 46.5l2 37q-18 6 -38 18.5t-38 28t-35.5 31.5t-30.5 29l70 71q27 -27 60.5 -66.5t48.5 -76.5h32q12 37 48 77t65 66l72 -69q-35 -35 -74 -68t-70 -47l-2 -37q35 -12 75 -46t67 -60l-70 -72q-27 27 -60.5 65.5t-48.5 75.5h-34q-12 -35 -48 -74.5 t-63 -68.5z" />
<glyph unicode="+" horiz-adv-x="858" d="M68 741v93h307v309h100v-309h305v-93h-305v-311h-100v311h-307z" />
<glyph unicode="," horiz-adv-x="299" d="M0 -203q35 18 56.5 41t32.5 54.5t14 77.5t-1 112h103q0 -78 -5 -130t-22.5 -91t-50.5 -68t-88 -61z" />
<glyph unicode="-" d="M125 598v92h592v-92h-592z" />
<glyph unicode="." horiz-adv-x="327" d="M102 68q0 37 24 55t52.5 18t52 -18.5t23.5 -54.5q0 -37 -23.5 -55.5t-52 -18.5t-52.5 18.5t-24 55.5z" />
<glyph unicode="/" horiz-adv-x="739" d="M82 -23l471 1600h98l-471 -1600h-98z" />
<glyph unicode="0" horiz-adv-x="962" d="M106 387v823q0 197 92.5 291t286.5 94q195 0 287 -92t92 -293v-829q0 -205 -92 -298t-287 -93t-287 98t-92 299zM205 381q0 -68 10 -122t41 -94t86 -61.5t143 -21.5q82 0 136.5 20.5t87 58.5t45 95t12.5 131v821q0 70 -10.5 124t-41 91t-86 56.5t-143.5 19.5 q-84 0 -137 -18.5t-86 -54t-45 -89t-12 -125.5v-831z" />
<glyph unicode="1" horiz-adv-x="808" d="M49 0v94h324v1387h-271v100h373v-1487h301v-94h-727z" />
<glyph unicode="2" horiz-adv-x="1034" d="M100 1176q0 119 34 198.5t91.5 128.5t135 70.5t165.5 21.5q74 0 146.5 -19.5t131 -69.5t95.5 -138t37 -225q0 -109 -31 -183.5t-81 -128t-114.5 -88t-131 -64.5t-131 -58.5t-114.5 -68.5t-81 -95.5t-31 -137.5v-215h727v-104h-833v309q0 133 53 213t133 132.5t173 88 t173 83.5t133.5 121t53.5 196q0 195 -85 274.5t-229 79.5q-168 0 -242.5 -87t-74.5 -234h-103z" />
<glyph unicode="3" horiz-adv-x="985" d="M82 395h104q0 -137 62.5 -220t212.5 -83q178 0 256 80t78 272q0 174 -86 270.5t-260 96.5h-91v100h91q49 0 101 10.5t97 41t74 84t29 139.5q0 61 -11.5 116.5t-42 98.5t-82 67.5t-131.5 24.5q-70 0 -122 -13.5t-87.5 -48t-55 -94t-23.5 -149.5h-107q0 195 97.5 301 t306.5 106q174 0 270 -109.5t96 -295.5q0 -121 -50 -205t-151 -125q121 -47 180.5 -151.5t59.5 -253.5q0 -244 -100.5 -354.5t-337.5 -110.5q-184 0 -280.5 97t-96.5 308z" />
<glyph unicode="4" horiz-adv-x="1103" d="M-4 444l698 1139h129v-1102h162v-98h-162v-383h-102v383h-703zM129 481h592l6 977z" />
<glyph unicode="5" horiz-adv-x="964" d="M82 387h96q0 -76 14.5 -130t49 -90t95 -53.5t150.5 -17.5q84 0 140.5 16.5t90.5 53.5t48 96.5t14 147.5v213q0 86 -12 146t-43 99t-85 57.5t-136 18.5h-381v635h696v-100h-592v-432h277q193 0 286 -95.5t93 -326.5v-217q0 -227 -98.5 -320.5t-299.5 -93.5q-215 0 -309 96 t-94 297z" />
<glyph unicode="6" horiz-adv-x="978" d="M113 434v283q0 242 114.5 451.5t343.5 414.5h136l2 -8q-66 -43 -126.5 -100.5t-111.5 -121t-92 -127t-70 -116.5q45 29 109.5 40t122.5 11q78 0 139 -23.5t103 -77.5t64.5 -140t22.5 -209v-277q0 -125 -22.5 -210t-69.5 -138t-118.5 -76.5t-167.5 -23.5t-168 21.5 t-119 72.5t-69.5 137t-22.5 217zM215 442q0 -96 10.5 -164.5t40 -112.5t84 -64.5t142.5 -20.5q82 0 136 20.5t84.5 64.5t43 111.5t12.5 161.5v273q0 94 -9 161.5t-37 111.5t-78 65.5t-130 23.5q-164 0 -231.5 -86t-67.5 -272v-273z" />
<glyph unicode="7" horiz-adv-x="880" d="M27 1485v96h811v-37l-609 -1544h-106l586 1485h-682z" />
<glyph unicode="8" horiz-adv-x="1081" d="M82 446q0 154 43 261.5t154 160.5q-29 20 -53.5 45t-43 62t-29 89t-10.5 130q0 219 94.5 309t288.5 90q96 0 167 -20.5t117 -67.5t68.5 -124.5t22.5 -192.5q0 -74 -10 -125t-27.5 -87t-41 -60.5t-48.5 -45.5q109 -47 157 -149.5t48 -274.5q0 -106 -16.5 -191 t-65.5 -143.5t-137 -90t-232 -31.5q-143 0 -230 40t-135 104.5t-64.5 146t-16.5 165.5zM184 446q0 -66 11.5 -129t46 -113t102.5 -81t182 -31q106 0 175 19.5t108 61.5t53.5 109.5t14.5 163.5t-15.5 166t-55.5 116t-108.5 68.5t-175.5 22.5h-2q-115 0 -181.5 -30.5t-100 -82 t-44 -119t-10.5 -141.5zM246 1198q0 -80 10 -134t41 -87t85 -47.5t140 -14.5q82 0 136.5 15.5t85 48.5t43 84t12.5 121q0 90 -10.5 150.5t-40 97t-83 53t-139.5 16.5q-84 0 -137 -21.5t-86 -60.5t-45 -95t-12 -126z" />
<glyph unicode="9" horiz-adv-x="978" d="M113 872v277q0 125 22.5 210t69.5 138t118.5 76.5t168.5 23.5q96 0 167.5 -21.5t118.5 -72.5t69.5 -137t22.5 -217v-283q0 -242 -114.5 -451.5t-343.5 -414.5h-136l-2 8q66 43 126.5 100.5t111.5 121t92 127t70 116.5q-45 -29 -109.5 -40t-122.5 -11q-78 0 -139 23.5 t-103 78t-64.5 140.5t-22.5 208zM215 872q0 -94 9 -161.5t37 -111.5t78 -65.5t130 -23.5q164 0 231.5 86t67.5 272v273q0 96 -10 164.5t-40 112.5t-84 64.5t-142 20.5q-84 0 -137.5 -20.5t-84 -64.5t-43 -111.5t-12.5 -161.5v-273z" />
<glyph unicode=":" horiz-adv-x="327" d="M102 88q0 37 24 55.5t52.5 18.5t52 -18.5t23.5 -55.5t-23.5 -55.5t-52 -18.5t-52.5 18.5t-24 55.5zM102 776q0 37 24 55.5t52.5 18.5t52 -18.5t23.5 -55.5t-23.5 -55.5t-52 -18.5t-52.5 18.5t-24 55.5z" />
<glyph unicode=";" horiz-adv-x="327" d="M25 -203q35 18 56 41t32.5 54.5t14.5 77.5t-1 112h102q0 -78 -5 -130t-22.5 -91t-50 -68t-88.5 -61zM102 776q0 37 24 55.5t52.5 18.5t52 -18.5t23.5 -55.5t-23.5 -55.5t-52 -18.5t-52.5 18.5t-24 55.5z" />
<glyph unicode="&#x3c;" horiz-adv-x="690" d="M102 657v35l402 381l61 -59l-350 -338v-2l352 -338l-63 -60z" />
<glyph unicode="=" horiz-adv-x="1003" d="M160 453v96h684v-96h-684zM160 799v100h684v-100h-684z" />
<glyph unicode="&#x3e;" horiz-adv-x="694" d="M127 336l352 338v2l-350 338l61 59l402 -381v-35l-402 -381z" />
<glyph unicode="?" horiz-adv-x="911" d="M61 1243q0 188 97.5 272t279.5 84q123 0 197 -36.5t112.5 -95t50 -131t11.5 -144.5v-135q0 -119 -28.5 -190.5t-71.5 -120t-92.5 -83t-92.5 -78.5t-71.5 -107.5t-28.5 -168.5h-98q0 119 28.5 190.5t71.5 120t93 83t93 77.5t72 105.5t29 167.5v137q0 92 -14.5 153.5 t-47.5 98.5t-85 52t-128 15q-70 0 -123 -12t-89 -43t-54 -82t-18 -129h-93zM299 68q0 37 23.5 55t52 18t52.5 -18.5t24 -54.5q0 -37 -24 -55.5t-52.5 -18.5t-52 18.5t-23.5 55.5z" />
<glyph unicode="@" horiz-adv-x="1327" d="M92 0v784q0 125 18.5 208t65.5 132.5t126 68.5t200 19h323q121 0 201 -20.5t126 -67.5t64.5 -125.5t18.5 -195.5v-572q0 -127 -55.5 -177t-149.5 -50q-55 0 -91 15.5t-57.5 39t-31.5 49t-12 46.5q-16 -29 -68.5 -62t-138.5 -33q-117 0 -183.5 59.5t-66.5 194.5v226 q0 72 24.5 123t64.5 84.5t93 49t109 15.5h248v-563q0 -66 24.5 -109t85.5 -43q53 0 78 25.5t25 101.5v563q0 111 -14.5 175.5t-50.5 98.5t-94.5 44t-146.5 10h-327q-88 0 -146.5 -11t-94.5 -46t-50 -99.5t-14 -171.5v-751q0 -55 9 -104.5t35.5 -84t73.5 -55t125 -20.5h410 v-103h-389q-180 0 -273.5 75t-93.5 257zM483 319q0 -92 39 -124.5t131 -32.5q86 0 125 51t39 174v328h-151q-182 0 -183 -178v-218z" />
<glyph unicode="A" horiz-adv-x="960" d="M18 0l406 1581h113l405 -1581h-108l-103 389h-506l-100 -389h-107zM250 485h459l-226 947h-2z" />
<glyph unicode="B" horiz-adv-x="1038" d="M123 -4l2 1585h301q211 0 309.5 -92t98.5 -297q0 -111 -41 -200t-127 -130q86 -14 143 -51t92 -90t49.5 -121t14.5 -141q0 -127 -21.5 -215t-76 -143.5t-146.5 -80t-234 -24.5h-364zM225 96h262q129 0 204 20.5t112 63.5t47 108.5t12 155.5q0 68 -10 129.5t-48 109.5 t-113 75.5t-204 27.5h-262v-690zM225 889h189q92 2 153.5 22.5t99.5 59.5t53 94t15 127q0 168 -72.5 232.5t-236.5 64.5h-199z" />
<glyph unicode="C" horiz-adv-x="1071" d="M121 508v559q0 131 17.5 231.5t66.5 168t135 101.5t225 34q121 0 201 -26t128 -79t67.5 -133t19.5 -186h-96q0 84 -13.5 146t-49.5 104t-98 62.5t-159 20.5q-121 0 -189.5 -31.5t-103 -90t-43 -138.5t-8.5 -176v-563q0 -102 8.5 -182t43 -135.5t103 -85t189.5 -29.5 q100 0 161.5 20.5t95.5 61.5t47.5 103.5t17.5 148.5h94q-4 -106 -23.5 -186.5t-65.5 -134.5t-125 -80.5t-202 -26.5q-135 0 -222 31.5t-136 96t-67.5 163t-18.5 231.5z" />
<glyph unicode="D" horiz-adv-x="1095" d="M145 0v1581h387q143 0 232.5 -31.5t138.5 -97.5t66.5 -167t17.5 -241v-522q0 -135 -19.5 -233.5t-69.5 -163t-139 -95t-231 -30.5h-383zM248 100h280q129 0 202 28t106.5 81t41 132t7.5 181v527q0 102 -7.5 184t-41 138t-106.5 87t-202 31h-280v-1389z" />
<glyph unicode="E" horiz-adv-x="974" d="M143 0v1581h715v-94h-612v-594h551v-96h-551v-697h653v-100h-756z" />
<glyph unicode="F" horiz-adv-x="950" d="M141 0v1581h744v-98h-641v-588h567v-100h-567v-795h-103z" />
<glyph unicode="G" horiz-adv-x="1142" d="M117 516v553q0 139 18.5 238.5t68.5 164t139 95t232 30.5q131 0 216.5 -26.5t136.5 -80.5t72.5 -137t25.5 -196l-92 -2q-4 94 -20.5 160.5t-57.5 108.5t-108.5 61.5t-172.5 19.5q-129 0 -201.5 -29.5t-106.5 -86t-41 -137.5t-7 -181v-555q0 -90 7 -168t41 -135t106.5 -89 t201.5 -32q115 0 185.5 24.5t110.5 74t54.5 122t14.5 168.5v248h-362v92h454v-340q0 -123 -18.5 -215t-69.5 -153.5t-139 -92t-230 -30.5q-141 0 -230 31.5t-139 96t-69.5 164t-19.5 234.5z" />
<glyph unicode="H" horiz-adv-x="1046" d="M143 0v1581h107v-690h553v690h102v-1581h-102v788h-553v-788h-107z" />
<glyph unicode="I" horiz-adv-x="395" d="M143 0v1581h109v-1581h-109z" />
<glyph unicode="J" horiz-adv-x="897" d="M16 379h99q0 -61 10 -114.5t39 -92.5t83 -60.5t142 -21.5t142.5 20.5t85 56.5t42 86t13.5 112v1216h102v-1212q0 -201 -95 -291t-290 -90t-284 95t-89 296z" />
<glyph unicode="K" horiz-adv-x="968" d="M133 0v1581h109v-707h77l490 707h129l-526 -752l549 -829h-134l-503 766h-82v-766h-109z" />
<glyph unicode="L" horiz-adv-x="907" d="M143 0v1581h103v-1487h612v-94h-715z" />
<glyph unicode="M" horiz-adv-x="1191" d="M143 0v1581h113l340 -995l342 995h113v-1581h-105v913l12 416l-344 -969h-34l-344 969l14 -416v-913h-107z" />
<glyph unicode="N" horiz-adv-x="1046" d="M141 2v1579h109l561 -1356h4l-18 563v793h108v-1579h-119l-546 1341h-4l14 -495v-846h-109z" />
<glyph unicode="O" horiz-adv-x="1165" d="M121 506v571q0 135 18.5 233.5t68.5 162t139 94t233 30.5q143 0 232 -30.5t139 -94t68.5 -162t18.5 -235.5v-567q0 -133 -19.5 -231.5t-69.5 -163t-139 -96t-230 -31.5t-230.5 31.5t-139.5 96t-69.5 162t-19.5 230.5zM223 512q0 -96 7.5 -175t41 -136.5t106.5 -89 t202 -31.5t201.5 30.5t106.5 88t41 136.5t7 177v559q0 100 -7 180t-41 136.5t-106.5 86t-201.5 29.5t-202 -28.5t-106.5 -84t-41 -136t-7.5 -183.5v-559z" />
<glyph unicode="P" horiz-adv-x="989" d="M143 0v1581h381q96 0 168 -18.5t119 -67.5t69.5 -135t22.5 -221v-138q0 -129 -22.5 -215t-69.5 -137t-118.5 -72.5t-168.5 -21.5h-272v-555h-109zM252 653h272q82 0 136.5 18.5t85 60.5t43 107.5t12.5 159.5v129q0 94 -10.5 162t-40 111t-84 62.5t-142.5 19.5h-272v-830z " />
<glyph unicode="Q" horiz-adv-x="1161" d="M121 487v613q0 125 18.5 217t68.5 153.5t139 91t233 29.5q143 0 232 -29.5t139 -91t68.5 -153.5t18.5 -217v-613q0 -111 -16 -197.5t-58 -147t-114 -96.5t-182 -46q2 -74 18 -118t50 -66.5t87.5 -29.5t128.5 -7v-103q-98 0 -169.5 13.5t-119 49.5t-71 97.5t-25.5 159.5 q-137 2 -224 33.5t-136 93t-67.5 153t-18.5 211.5zM223 522q0 -102 7.5 -181t41 -133t106.5 -82t202 -28t201.5 28t106.5 82t41 133t7 181v543q0 102 -7 182t-41 134.5t-106.5 83t-201.5 28.5t-202 -28.5t-106.5 -83t-41 -134.5t-7.5 -182v-543z" />
<glyph unicode="R" horiz-adv-x="974" d="M143 0v1581h381q96 0 168 -21.5t119 -73.5t69.5 -141.5t22.5 -226.5v-121q0 -109 -18.5 -184.5t-56 -123.5t-95 -72.5t-135.5 -30.5l334 -586h-127l-324 584h-229v-584h-109zM252 680h272q82 0 136.5 14.5t85 51t43 98t12.5 155.5v119q0 96 -10.5 165t-40 112t-84 62.5 t-142.5 19.5h-272v-797z" />
<glyph unicode="S" horiz-adv-x="1062" d="M90 358h98q0 -147 82 -211.5t242 -64.5q98 0 165.5 21.5t109.5 66.5t60.5 116.5t18.5 174.5q0 104 -34.5 167.5t-93 98.5t-137.5 49.5t-167 22.5q-61 6 -121.5 25.5t-109.5 62.5t-79 114.5t-30 182.5q0 223 108.5 319t325.5 99q82 0 154 -16.5t126 -56.5t87 -109.5 t37 -174.5h-98q-2 145 -86 204.5t-222 59.5q-80 0 -141 -14t-104 -51t-64.5 -100.5t-21.5 -159.5q0 -109 30.5 -166t85 -86t130 -39t165.5 -21q174 -23 269.5 -131t95.5 -282q0 -145 -34 -238.5t-94.5 -145.5t-145.5 -71.5t-187 -19.5q-211 2 -315.5 92t-104.5 282z" />
<glyph unicode="T" horiz-adv-x="794" d="M16 1485v96h762v-96h-329v-1485h-103v1485h-330z" />
<glyph unicode="U" horiz-adv-x="1110" d="M123 512v1069h104v-1069q0 -100 8.5 -179t40 -133.5t96 -83t177.5 -28.5t176 28.5t96 83t41 133.5t8 179v1069h105v-1069q0 -131 -16.5 -228.5t-62.5 -161t-129 -95t-218 -31.5t-219 31.5t-130 95t-61.5 161t-15.5 228.5z" />
<glyph unicode="V" horiz-adv-x="960" d="M18 1581h113l205 -809l143 -610h2l142 608l206 811h113l-405 -1583h-113z" />
<glyph unicode="W" horiz-adv-x="1556" d="M18 1581h113l170 -745l135 -652h4l293 1311h82l293 -1311h4l135 652l170 745h113l-367 -1583h-112l-166 727l-111 553l-108 -543l-168 -737h-113z" />
<glyph unicode="X" horiz-adv-x="892" d="M18 0l365 784l-332 797h111l157 -371l127 -327l129 327l156 371h111l-332 -797l364 -784h-114l-146 309l-168 381l-172 -391l-141 -299h-115z" />
<glyph unicode="Y" horiz-adv-x="806" d="M-4 1581h119l145 -383l141 -407l144 407l149 383h119l-356 -907v-676h-111v676z" />
<glyph unicode="Z" d="M29 0l618 1483h-528v98h686l-623 -1483h623v-98h-776z" />
<glyph unicode="[" horiz-adv-x="575" d="M186 -233v1824h322v-90h-219v-1638h219v-96h-322z" />
<glyph unicode="\" horiz-adv-x="688" d="M92 1575h113l405 -1577h-112z" />
<glyph unicode="]" horiz-adv-x="593" d="M86 -137h219v1638h-219v90h322v-1824h-322v96z" />
<glyph unicode="^" horiz-adv-x="1105" d="M111 938l389 649h80l385 -649h-111l-315 547l-320 -547h-108z" />
<glyph unicode="_" horiz-adv-x="901" d="M72 -4h762v-90h-762v90z" />
<glyph unicode="`" horiz-adv-x="409" d="M57 1577v6h115l100 -242v-10h-86z" />
<glyph unicode="a" horiz-adv-x="991" d="M88 307q0 111 46 180.5t134 106.5t213 44q46 3 97 3q87 0 186 -8v172v10q0 151 -58 221q-60 72 -202 72q-63 0 -112.5 -12.5t-82.5 -43t-49 -85t-16 -140.5h-99q0 190 82 281.5t277 91.5q180 0 269 -92t89 -301v-807h-86l-2 160q-61 -100 -146 -135t-206 -35 q-74 0 -135.5 17.5t-105.5 56t-68.5 98t-24.5 145.5zM190 305q0 -117 67 -168t202 -51q86 0 144.5 28.5t94 72.5t51 95.5t15.5 98.5v154q-108 11 -195 11q-151 0 -239 -32q-140 -50 -140 -209z" />
<glyph unicode="b" horiz-adv-x="983" d="M113 438v1213h102v-564q45 76 123 105t154 29q100 0 171.5 -25t117.5 -80t67.5 -143t21.5 -215v-332q0 -238 -93 -340t-285 -102q-96 0 -168 20.5t-119 71.5t-69.5 139t-22.5 223zM213 436q0 -96 12.5 -163.5t44 -108.5t85 -59.5t137.5 -18.5q82 0 136 18.5t84.5 60.5 t43 107.5t12.5 159.5v328q0 96 -12.5 164.5t-43 111.5t-85 62.5t-135.5 19.5q-139 0 -209 -68.5t-70 -240.5v-373z" />
<glyph unicode="c" horiz-adv-x="946" d="M102 438v318q0 125 25 210t73 138t120.5 76.5t168.5 23.5q98 0 166 -21.5t110 -64.5t61.5 -107.5t23.5 -150.5h-96q-4 55 -16.5 101.5t-41 78t-79 50t-128.5 18.5q-82 0 -136 -19.5t-87 -62.5t-47 -109.5t-14 -160.5v-312q0 -92 11 -159.5t42 -111.5t84 -65.5t139 -21.5 t139.5 18.5t83 53.5t41 85t13.5 113h96q0 -190 -92 -280t-281 -90q-195 0 -287 103.5t-92 348.5z" />
<glyph unicode="d" horiz-adv-x="1026" d="M111 426v387q0 211 100 305t278 94q94 0 161 -24.5t116 -81.5v557h102v-1663h-90l-10 131q-43 -63 -114.5 -100t-182.5 -37q-94 0 -162.5 23.5t-112.5 74.5t-64.5 134t-20.5 200zM213 428q0 -100 16.5 -165.5t50 -103.5t84 -53.5t117.5 -15.5q158 4 221.5 84t63.5 227 v396q0 86 -11.5 146.5t-43 99t-86 57t-136.5 18.5q-84 0 -137 -20.5t-83.5 -59.5t-43 -96t-12.5 -133v-381z" />
<glyph unicode="e" horiz-adv-x="964" d="M109 438v322q0 246 92 349t286 103q104 0 175 -26.5t114 -81.5t61.5 -140t18.5 -204v-178h-649v-136q0 -92 12 -159.5t44 -111.5t86 -66.5t138 -22.5q82 0 133.5 17.5t80 49t39 75.5t10.5 98h92q0 -164 -85 -248t-270 -84q-96 0 -167.5 23.5t-118.5 76.5t-69.5 137 t-22.5 207zM207 676h559v82q0 86 -10.5 154.5t-40 115.5t-85 72.5t-143.5 25.5q-84 0 -137 -21.5t-86 -65.5t-45 -112.5t-12 -162.5v-88z" />
<glyph unicode="f" horiz-adv-x="548" d="M121 0v1167q0 233 90 336q79 90 240 90q24 0 49 -2v-90q-17 1 -32 1q-63 0 -106 -13q-53 -16 -83.5 -56t-43 -106.5t-12.5 -161.5v-78h234v-92h-234v-995h-102z" />
<glyph unicode="g" horiz-adv-x="970" d="M102 406v372q0 121 24 203t71 131t119.5 70.5t170.5 23.5q106 0 177 -35.5t112 -113.5v133h92v-1206q0 -123 -24.5 -208t-72.5 -137.5t-120.5 -76t-169.5 -23.5q-170 0 -254 71t-92 228h96q2 -47 14.5 -85t40 -64.5t75 -41t120.5 -14.5q86 0 141.5 20.5t87 62.5t45 108.5 t13.5 159.5v153q-45 -84 -121 -113.5t-178 -29.5q-182 0 -274.5 92t-92.5 320zM205 403q2 -92 18.5 -151t50 -95t85 -49.5t120.5 -13.5q154 0 219.5 79t65.5 228v342q0 86 -13.5 155t-45 116t-85 71.5t-133.5 24.5q-80 -2 -134 -18.5t-87 -55.5t-47 -102.5t-14 -157.5v-373z " />
<glyph unicode="h" horiz-adv-x="966" d="M113 0v1581h102v-494q18 33 50 57.5t69 39t76 21.5t73 7q100 0 170 -24.5t115 -77.5t65.5 -140t20.5 -212v-758h-102v760q0 94 -11.5 160.5t-40 108.5t-82 61.5t-135.5 19.5q-139 0 -204.5 -68.5t-65.5 -232.5v-809h-100z" />
<glyph unicode="i" horiz-adv-x="407" d="M129 1511q0 37 23.5 55.5t52 18.5t52.5 -18.5t24 -55.5t-24 -55t-52.5 -18t-52 18t-23.5 55zM158 0v1208h100v-1208h-100z" />
<glyph unicode="j" horiz-adv-x="421" d="M2 -279q53 0 87 9.5t54.5 39t27.5 86t7 148.5v1204h103v-1198q0 -102 -11.5 -176t-42 -121t-85.5 -69q-45 -18 -114 -18q-13 0 -26 1v94zM152 1526q0 37 23.5 55t52 18t52 -18t23.5 -55t-23.5 -55.5t-52 -18.5t-52 18.5t-23.5 55.5z" />
<glyph unicode="k" horiz-adv-x="897" d="M113 0v1581h104v-879h113l383 510h123l-420 -563l471 -649h-127l-428 596h-113v-596h-106z" />
<glyph unicode="l" horiz-adv-x="499" d="M143 336v1245h103v-1251q0 -80 6 -127t26.5 -72t58.5 -33t101 -8v-92q-28 -2 -53 -2q-59 0 -99 10q-58 14 -89 54t-42.5 108t-11.5 168z" />
<glyph unicode="m" horiz-adv-x="1734" d="M152 0v1190h94l10 -96q47 66 122 92t173 26q133 0 211 -49t110 -127q37 55 77 90t83 54.5t89 25.5t96 6q111 0 181 -28.5t111 -84t57.5 -137t16.5 -188.5v-774h-102v776q0 94 -11.5 159.5t-42 106.5t-84 58.5t-137.5 17.5t-139 -24.5t-89 -66.5t-47 -99.5t-13 -120.5 v-807h-103v776q0 84 -11 147.5t-42 106.5t-84 65.5t-137 22.5t-139.5 -19.5t-88 -54t-46 -85t-13.5 -113.5v-846h-102z" />
<glyph unicode="n" horiz-adv-x="1069" d="M162 0v1190h90l8 -127q41 66 116 107.5t185 41.5q104 0 175 -24.5t114 -77.5t60.5 -135t17.5 -199v-776h-103v776q0 100 -12 167t-44 107t-85 56t-133 16t-135.5 -25.5t-89 -66.5t-48 -92t-14.5 -102v-836h-102z" />
<glyph unicode="o" horiz-adv-x="962" d="M102 434v328q0 127 22.5 212t70 137t119 74.5t167.5 22.5t168 -21.5t119 -72.5t69.5 -139t22.5 -219v-322q0 -125 -22.5 -210t-69.5 -138t-119 -76.5t-168 -23.5t-167.5 21.5t-119 72.5t-70 137t-22.5 217zM205 442q0 -96 10 -164.5t40 -112.5t84 -64.5t142 -20.5 q82 0 136.5 20.5t85 64.5t43 111.5t12.5 161.5v318q0 96 -10.5 163.5t-40 110.5t-84 62.5t-142.5 19.5q-84 0 -137 -19.5t-84 -62.5t-43 -109.5t-12 -160.5v-318z" />
<glyph unicode="p" horiz-adv-x="1017" d="M135 -373v1579h90l11 -131q43 63 114 100t182 37q94 0 163 -23.5t113 -74.5t64.5 -134t20.5 -200v-387q0 -213 -100.5 -306t-278.5 -93q-94 0 -160.5 24.5t-115.5 81.5v-473h-103zM238 410q0 -86 11 -146.5t43 -99.5t85 -57.5t137 -18.5q82 0 136.5 20.5t85 59.5t43 96.5 t12.5 132.5v381q0 100 -16.5 166t-50.5 103.5t-84 53t-118 15.5q-158 -4 -221 -84t-63 -227v-395z" />
<glyph unicode="q" horiz-adv-x="987" d="M109 449v321q0 238 92 340t286 102q96 0 168 -20.5t119 -71.5t69.5 -139t22.5 -223v-1131h-102v492q-23 -39 -54.5 -63.5t-68.5 -38t-77 -18.5t-77 -5q-100 0 -171.5 23.5t-117.5 76.5t-67.5 140.5t-21.5 214.5zM211 446q0 -96 12.5 -163.5t43 -108.5t83.5 -59.5 t137 -18.5q137 0 208 64.5t71 236.5v363q0 96 -12.5 162.5t-44 108.5t-86 60.5t-136.5 18.5q-84 0 -137 -18.5t-83.5 -60.5t-43 -107.5t-12.5 -159.5v-318z" />
<glyph unicode="r" horiz-adv-x="600" d="M123 0v1208h92l6 -143q18 37 50 67.5t73 50t91 27.5q20 3 42 2q31 0 64 -6v-96q-28 4 -55 4q-38 0 -72 -8q-58 -14 -99 -50t-64.5 -88.5t-23.5 -115.5l-2 -852h-102z" />
<glyph unicode="s" horiz-adv-x="909" d="M78 334h102q0 -53 14.5 -97t48 -76t87 -50.5t133.5 -18.5q139 0 207.5 63.5t68.5 180.5q0 82 -29.5 127t-77.5 67.5t-108.5 31.5t-124.5 18q-59 8 -116.5 22t-102.5 47t-71.5 90.5t-26.5 153.5q0 147 93 233t278 86q190 0 276 -85t86 -232h-100q-4 111 -63.5 166 t-196.5 55q-139 0 -202 -59.5t-63 -161.5q0 -78 25 -121t67 -64.5t95 -28.5t110 -15q66 -10 130.5 -24.5t114.5 -48.5t82 -94.5t32 -160.5q0 -158 -93.5 -251t-289.5 -93q-88 0 -159 18.5t-121 58.5t-77.5 105.5t-27.5 157.5z" />
<glyph unicode="t" horiz-adv-x="559" d="M131 336v1141l102 14v-283h248v-96h-248v-774q0 -84 13.5 -136t44.5 -80t81 -35q27 -4 61 -4q29 0 63 3v-90q-42 -4 -79 -4q-52 0 -93 8q-70 14 -113 56t-61.5 111t-18.5 169z" />
<glyph unicode="u" horiz-adv-x="1044" d="M135 418v772h103v-772q0 -100 12 -167t44 -107t85 -56t133 -16t135 25.5t89 66.5t48.5 92t14.5 102v832h102v-1190h-90l-8 131q-41 -66 -116 -107.5t-185 -41.5q-104 0 -175 24.5t-114 77.5t-60.5 135t-17.5 199z" />
<glyph unicode="v" horiz-adv-x="765" d="M6 1190h113l131 -483l133 -553h2l133 553l131 483h113l-320 -1192h-116z" />
<glyph unicode="w" horiz-adv-x="1245" d="M16 1190h107l137 -594l86 -446h2l230 1040h88l247 -1040h2l84 458l125 582h103l-254 -1192h-121l-139 594l-90 405l-88 -415l-132 -584h-114z" />
<glyph unicode="x" d="M18 0l334 618l-313 572h115l147 -272l113 -230l118 236l150 266h115l-322 -572l340 -618h-119l-164 309l-118 240l-127 -252l-156 -297h-113z" />
<glyph unicode="y" horiz-adv-x="843" d="M31 1190h112l131 -483l162 -553h2l137 553l132 483h112l-393 -1419q-45 -160 -136 -209q-45 -24 -106 -24q-63 0 -145 26l35 90q55 -20 95 -22q5 -1 10 -1q34 0 59 15q28 16 49.5 50t38.5 87l55 211z" />
<glyph unicode="z" horiz-adv-x="884" d="M63 0v18l621 1078h-578v94h732v-21l-623 -1073h629v-96h-781z" />
<glyph unicode="{" horiz-adv-x="575" d="M84 684v80q49 0 80 21.5t47 55t21.5 77t5.5 83.5v373q0 164 64.5 244t227.5 70v-82q-61 8 -100 -7.5t-60.5 -47t-28.5 -79t-7 -102.5v-369q0 -29 -2 -68.5t-12.5 -79.5t-32 -75t-62.5 -53q35 -14 56.5 -43t34 -65.5t16.5 -78.5t4 -81v-414q0 -55 7 -101t28.5 -77 t59.5 -45.5t99 -5.5v-93q-164 -10 -228 70t-64 244v420q0 37 -5.5 76.5t-21.5 73.5t-47 56.5t-80 22.5z" />
<glyph unicode="|" horiz-adv-x="466" d="M186 -211v1806h95v-1806h-95z" />
<glyph unicode="}" horiz-adv-x="614" d="M72 -186q61 -8 99 6t59.5 45t28.5 77t7 101v414q0 39 4 81t16.5 78.5t34 65.5t56.5 43q-41 18 -62.5 53t-32 75t-12.5 80t-2 68v369q0 55 -8 102.5t-29.5 79t-59.5 47t-99 7.5v82q164 10 228.5 -70t64.5 -244v-373q0 -41 5 -84t21.5 -76.5t47 -55t79.5 -21.5v-80 q-49 0 -79.5 -22.5t-47 -56.5t-21.5 -73.5t-5 -76.5v-420q0 -164 -64.5 -244t-228.5 -70v93z" />
<glyph unicode="~" horiz-adv-x="1191" d="M123 578q23 66 61.5 110.5t88 68t106.5 21.5t117 -30l243 -117q35 -14 69 -21.5t65.5 2t59.5 41t52 95.5l76 -33q-45 -133 -137.5 -180.5t-227.5 18.5l-241 119q-33 14 -69 19t-69.5 -8t-64.5 -47t-53 -93z" />
<glyph unicode="&#xa2;" horiz-adv-x="946" d="M102 438v318q0 229 83 331.5t251 114.5v178h88v-178q88 -4 148.5 -27.5t98.5 -66.5t56.5 -104.5t22.5 -143.5h-96q-4 55 -16.5 101.5t-41 78t-79 50t-128.5 18.5q-82 0 -136 -19.5t-87 -62.5t-47 -109.5t-14 -160.5v-312q0 -92 11 -159.5t42 -111.5t84 -65.5t139 -21.5 t139.5 18.5t83 53.5t41 85t13.5 113h96q0 -180 -82 -269t-248 -99v-174h-88v174q-172 10 -253 113.5t-81 336.5z" />
<glyph unicode="&#xa3;" horiz-adv-x="1206" d="M82 0v96h223v690h-205v99h205v327q0 201 92 288t287 87t287 -94t92 -291h-102q0 61 -10.5 114.5t-40 91.5t-84 59.5t-142.5 21.5t-142.5 -19.5t-83 -55.5t-38.5 -86t-12 -111v-332h452v-99h-452v-690h682v-96h-1008z" />
<glyph unicode="&#xa5;" horiz-adv-x="806" d="M-4 1585h119l145 -387l141 -407l144 407l149 387h119l-313 -799h221v-86h-254l-10 -26v-127h264v-84h-264v-465h-111v465h-272v84h272v127l-10 26h-262v86h229z" />
<glyph unicode="&#xa8;" horiz-adv-x="782" d="M129 1507q0 37 23.5 55.5t51 18.5t51.5 -18.5t24 -55.5q0 -35 -24 -53t-51.5 -18t-51 17t-23.5 54zM502 1507q0 37 23.5 55.5t51 18.5t51 -18.5t23.5 -55.5q0 -35 -23.5 -53t-51 -18t-51 17t-23.5 54z" />
<glyph unicode="&#xa9;" horiz-adv-x="1845" d="M135 788.5q0 151.5 49 298t146.5 260t244 183t340.5 69.5q197 0 345.5 -69.5t247 -183t147.5 -260t49 -298t-49 -298t-147.5 -260t-247 -183.5t-345.5 -70q-195 0 -341 70t-243.5 183.5t-146.5 260t-49 298zM223 788.5q0 -135.5 44 -264.5t130 -230t216 -162.5t302 -61.5 q174 0 306.5 61.5t219.5 162.5t131 230t44 264.5t-44 264.5t-131 230t-219.5 162.5t-306.5 61.5q-172 0 -302 -61.5t-216 -162.5t-130 -230t-44 -264.5zM555 649v271q0 100 14.5 174.5t55.5 124t113.5 74t187.5 24.5q111 0 181.5 -24.5t112.5 -74t57 -124t15 -174.5h-82 q0 74 -11 132t-42 99t-87 62.5t-144 21.5q-104 0 -162.5 -22.5t-86.5 -65.5t-34 -107.5t-6 -146.5v-215q0 -84 6 -147.5t34 -106.5t86 -65.5t163 -22.5q92 0 148 19.5t86 59.5t40 98t10 136h84q0 -98 -15 -173t-55 -125t-113 -74.5t-185 -24.5q-115 0 -186.5 24.5 t-112.5 74.5t-56.5 125t-15.5 173z" />
<glyph unicode="&#xab;" horiz-adv-x="755" d="M76 657l282 451h109l-281 -451l281 -452h-109zM297 657l283 451h108l-280 -451l280 -452h-108z" />
<glyph unicode="&#xad;" d="M125 598v92h592v-92h-592z" />
<glyph unicode="&#xae;" horiz-adv-x="970" d="M41 1257q0 102 31.5 182.5t88 135.5t132.5 84t164 29t164.5 -28t134 -81t90.5 -132t33 -181t-32 -182t-88.5 -135.5t-132 -84t-163.5 -28.5t-165 27.5t-134.5 80.5t-90 132t-32.5 181zM98 1262q0 -90 28 -159t77 -115t114.5 -69.5t139.5 -23.5q72 0 137 21.5t116.5 66.5 t81 114t29.5 165q0 90 -28.5 158.5t-76.5 114.5t-113.5 69.5t-139.5 23.5q-72 0 -137.5 -21.5t-116.5 -66.5t-81 -114.5t-30 -163.5zM330 999v525h125q82 0 122.5 -34t40.5 -126q0 -80 -28.5 -109.5t-81.5 -40.5l115 -215h-52l-114 211h-76v-211h-51zM381 1255h74 q35 0 57.5 2.5t35.5 13.5t18 32.5t5 62.5q0 57 -21.5 85t-94.5 28h-74v-224z" />
<glyph unicode="&#xb4;" horiz-adv-x="389" d="M90 1331v10l100 242h115v-6l-129 -246h-86z" />
<glyph unicode="&#xb8;" horiz-adv-x="602" d="M63 -348l48 59q23 -41 66.5 -65.5t82.5 -24.5q76 0 107.5 25.5t42.5 68.5q6 25 -1.5 55.5t-30 53t-64.5 34t-105 -2.5l43 194h74l-25 -117q57 0 96 -22.5t61.5 -55t30 -71.5t0.5 -72q-16 -92 -79.5 -133t-155.5 -35q-47 4 -101.5 26.5t-89.5 82.5z" />
<glyph unicode="&#xbb;" horiz-adv-x="755" d="M55 207l281 452l-281 451h109l282 -451l-282 -452h-109zM276 207l281 452l-281 451h109l283 -451l-283 -452h-109z" />
<glyph unicode="&#xc7;" horiz-adv-x="1071" d="M121 508v559q0 131 17.5 231.5t66.5 168t135 101.5t225 34q121 0 201 -26t128 -79t67.5 -133t19.5 -186h-96q0 84 -13.5 146t-49.5 104t-98 62.5t-159 20.5q-121 0 -189.5 -31.5t-103 -90t-43 -138.5t-8.5 -176v-563q0 -102 8.5 -182t43 -135.5t103 -85t189.5 -29.5 q100 0 161.5 20.5t95.5 61.5t47.5 103.5t17.5 148.5h94q-4 -102 -21.5 -179t-59.5 -130.5t-111.5 -83t-176.5 -33.5l-20 -99q57 0 96 -22.5t61.5 -55t29.5 -71.5t1 -72q-16 -92 -79.5 -133t-155.5 -35q-47 4 -101.5 26.5t-89.5 82.5l47 59q23 -41 67 -65.5t83 -24.5 q76 0 107.5 25.5t41.5 68.5q6 25 -1 55.5t-29.5 53t-64.5 34t-105 -2.5l39 174q-127 2 -209 35.5t-128 98t-63.5 161t-17.5 227.5z" />
<glyph unicode="&#xd6;" horiz-adv-x="1165" d="M121 506v571q0 135 18.5 233.5t68.5 162t139 94t233 30.5q143 0 232 -30.5t139 -94t68.5 -162t18.5 -235.5v-567q0 -133 -19.5 -231.5t-69.5 -163t-139 -96t-230 -31.5t-230.5 31.5t-139.5 96t-69.5 162t-19.5 230.5zM223 512q0 -96 7.5 -175t41 -136.5t106.5 -89 t202 -31.5t201.5 30.5t106.5 88t41 136.5t7 177v559q0 100 -7 180t-41 136.5t-106.5 86t-201.5 29.5t-202 -28.5t-106.5 -84t-41 -136t-7.5 -183.5v-559zM330 1792q0 37 23.5 55.5t51 18.5t51 -18.5t23.5 -55.5q0 -35 -23.5 -53.5t-51 -18.5t-51 17.5t-23.5 54.5zM702 1792 q0 37 24 55.5t51.5 18.5t51 -18.5t23.5 -55.5q0 -35 -23.5 -53.5t-51 -18.5t-51.5 17.5t-24 54.5z" />
<glyph unicode="&#xdc;" horiz-adv-x="1110" d="M123 512v1073h104v-1073q0 -100 8.5 -179t40 -133.5t96 -83t177.5 -28.5t176 28.5t96 83t41 133.5t8 179v1073h105v-1073q0 -131 -16.5 -228.5t-62.5 -161t-129 -95t-218 -31.5t-219 31.5t-130 95t-61.5 161t-15.5 228.5zM293 1761q0 37 23.5 55.5t51 18.5t51 -18.5 t23.5 -55.5q0 -35 -23.5 -53t-51 -18t-51 17t-23.5 54zM666 1761q0 37 23.5 55.5t51 18.5t51 -18.5t23.5 -55.5q0 -35 -23.5 -53t-51 -18t-51 17t-23.5 54z" />
<glyph unicode="&#xe7;" horiz-adv-x="946" d="M102 438v318q0 125 25 210t73 138t120.5 76.5t168.5 23.5q98 0 166 -21.5t110 -64.5t61.5 -107.5t23.5 -150.5h-96q-4 55 -16.5 101.5t-41 78t-79 50t-128.5 18.5q-82 0 -136 -19.5t-87 -62.5t-47 -109.5t-14 -160.5v-312q0 -92 11 -159.5t42 -111.5t84 -65.5t139 -21.5 t139.5 18.5t83 53.5t41 85t13.5 113h96q0 -354 -338 -368l-16 -84q51 0 86 -20.5t54 -49.5t25.5 -62.5t0.5 -64.5q-14 -72 -60.5 -111.5t-104 -48t-113.5 15t-89 77.5l41 59q20 -31 57 -51.5t76 -22.5t73 17.5t48 68.5q4 20 -1 45t-24.5 45.5t-56.5 29.5t-94 -3l33 160 q-90 4 -156 30.5t-109 80t-63.5 137t-20.5 202.5z" />
<glyph unicode="&#xf6;" horiz-adv-x="962" d="M102 434v328q0 127 22.5 212t70 137t119 74.5t167.5 22.5t168 -21.5t119 -72.5t69.5 -139t22.5 -219v-322q0 -125 -22.5 -210t-69.5 -138t-119 -76.5t-168 -23.5t-167.5 21.5t-119 72.5t-70 137t-22.5 217zM205 442q0 -96 10 -164.5t40 -112.5t84 -64.5t142 -20.5 q82 0 136.5 20.5t85 64.5t43 111.5t12.5 161.5v318q0 96 -10.5 163.5t-40 110.5t-84 62.5t-142.5 19.5q-84 0 -137 -19.5t-84 -62.5t-43 -109.5t-12 -160.5v-318zM238 1475q0 37 23.5 55t51 18t51 -18.5t23.5 -54.5q0 -35 -23.5 -53.5t-51 -18.5t-51 17.5t-23.5 54.5z M592 1475q0 37 23.5 55t51 18t51 -18.5t23.5 -54.5q0 -35 -23.5 -53.5t-51 -18.5t-51 17.5t-23.5 54.5z" />
<glyph unicode="&#xfc;" horiz-adv-x="1044" d="M135 418v774h103v-774q0 -100 12 -167t44 -107t85 -56t133 -16t135 25.5t89 66.5t48.5 92t14.5 102v834h102v-1192h-90l-8 131q-41 -66 -116 -107.5t-185 -41.5q-104 0 -175 24.5t-114 77.5t-60.5 135t-17.5 199zM260 1507q0 37 23.5 55.5t51 18.5t51.5 -18.5t24 -55.5 q0 -35 -24 -53t-51.5 -18t-51 17t-23.5 54zM633 1507q0 37 23.5 55.5t51 18.5t51 -18.5t23.5 -55.5q0 -35 -23.5 -53t-51 -18t-51 17t-23.5 54z" />
<glyph unicode="&#x11e;" horiz-adv-x="1142" d="M117 516v553q0 139 18.5 238.5t68.5 164t139 95t232 30.5q131 0 216.5 -26.5t136.5 -80.5t72.5 -137t25.5 -196l-92 -2q-4 94 -20.5 160.5t-57.5 108.5t-108.5 61.5t-172.5 19.5q-129 0 -201.5 -29.5t-106.5 -86t-41 -137.5t-7 -181v-555q0 -90 7 -168t41 -135t106.5 -89 t201.5 -32q115 0 185.5 24.5t110.5 74t54.5 122t14.5 168.5v248h-362v92h454v-340q0 -123 -18.5 -215t-69.5 -153.5t-139 -92t-230 -30.5q-141 0 -230 31.5t-139 96t-69.5 164t-19.5 234.5zM352 1925h78q10 -139 154 -139q143 0 153 139h78q-2 -59 -19.5 -100t-48 -66.5 t-72.5 -38t-91 -12.5q-100 2 -163 50t-69 167z" />
<glyph unicode="&#x11f;" horiz-adv-x="970" d="M102 406v372q0 121 24 203t71 131t119.5 70.5t170.5 23.5q106 0 177 -35.5t112 -113.5v133h92v-1206q0 -123 -24.5 -208t-72.5 -137.5t-120.5 -76t-169.5 -23.5q-170 0 -254 71t-92 228h96q2 -47 14.5 -85t40 -64.5t75 -41t120.5 -14.5q86 0 141.5 20.5t87 62.5t45 108.5 t13.5 159.5v153q-45 -84 -121 -113.5t-178 -29.5q-182 0 -274.5 92t-92.5 320zM205 403q2 -92 18.5 -151t50 -95t85 -49.5t120.5 -13.5q154 0 219.5 79t65.5 228v342q0 86 -13.5 155t-45 116t-85 71.5t-133.5 24.5q-80 -2 -134 -18.5t-87 -55.5t-47 -102.5t-14 -157.5v-373z M272 1559h78q10 -139 154 -140q143 0 153 140h78q-2 -59 -19.5 -100.5t-48 -67t-72.5 -38t-91 -12.5q-100 2 -162.5 50.5t-69.5 167.5z" />
<glyph unicode="&#x131;" horiz-adv-x="407" d="M158 0v1208h100v-1208h-100z" />
<glyph unicode="&#x15e;" horiz-adv-x="1062" d="M90 358h98q0 -147 82 -211.5t242 -64.5q98 0 165.5 21.5t109.5 66.5t60.5 116.5t18.5 174.5q0 104 -34.5 167.5t-93 98.5t-137.5 49.5t-167 22.5q-61 6 -121.5 25.5t-109.5 62.5t-79 114.5t-30 182.5q0 223 108.5 319t325.5 99q82 0 154 -16.5t126 -56.5t87 -109.5 t37 -174.5h-98q-2 145 -86 204.5t-222 59.5q-80 0 -141 -14t-104 -51t-64.5 -100.5t-21.5 -159.5q0 -109 30.5 -166t85 -86t130 -39t165.5 -21q174 -23 269.5 -131t95.5 -282q0 -139 -31 -230.5t-87 -144.5t-135 -74.5t-173 -23.5l-17 -78q55 0 92 -20.5t58.5 -50.5 t29 -65.5t1.5 -66.5q-16 -84 -78 -121t-150 -30q-45 2 -96 22.5t-86 75.5l45 53q23 -37 65 -59.5t78 -22.5q72 0 104 23.5t42 62.5q6 23 -1 50.5t-29.5 49t-62.5 30.5t-102 -3l33 150q-193 10 -287 99t-94 273z" />
<glyph unicode="&#x15f;" horiz-adv-x="909" d="M78 334h102q0 -53 14.5 -97t48 -76t87 -50.5t133.5 -18.5q139 0 207.5 63.5t68.5 180.5q0 82 -29.5 127t-77.5 67.5t-108.5 31.5t-124.5 18q-59 8 -116.5 22t-102.5 47t-71.5 90.5t-26.5 153.5q0 147 93 233t278 86q190 0 276 -85t86 -232h-100q-4 111 -63.5 166 t-196.5 55q-139 0 -202 -59.5t-63 -161.5q0 -78 25 -121t67 -64.5t95 -28.5t110 -15q66 -10 130.5 -24.5t114.5 -48.5t82 -94.5t32 -160.5q0 -152 -86 -244t-266 -98l-15 -76q55 0 91 -19.5t57.5 -49t29 -63.5t0.5 -64q-16 -84 -76.5 -120t-146.5 -32q-47 4 -97 24.5 t-85 73.5l45 54q23 -39 64.5 -60.5t78.5 -21.5q72 0 101.5 22.5t40.5 61.5q6 23 -1.5 50t-29 47.5t-60 30t-100.5 -3.5l33 146q-80 2 -143.5 22.5t-108.5 61.5t-69.5 103.5t-24.5 150.5z" />
<glyph unicode="&#x18f;" horiz-adv-x="1142" d="M117 481v340h813v250q0 100 -7.5 181t-41 137.5t-106.5 86t-202 29.5q-104 0 -171.5 -19.5t-108.5 -61.5t-58.5 -108.5t-19.5 -160.5l-92 2q2 113 24.5 196t73.5 137t136 80.5t216 26.5q143 0 232.5 -30.5t139.5 -95t68.5 -164t18.5 -238.5v-553q0 -135 -19.5 -234.5 t-69.5 -164t-139 -96t-231 -31.5q-141 0 -229 30.5t-139 92t-69.5 153.5t-18.5 215zM209 481q0 -96 14.5 -168.5t54 -122t110.5 -74t185 -24.5q129 0 202 32t106.5 89t41 135t7.5 168v213h-721v-248z" />
<glyph unicode="&#x259;" horiz-adv-x="964" d="M109 446v179h649v135q0 92 -12.5 159.5t-44 111.5t-86 66.5t-138.5 22.5q-82 0 -133 -17.5t-79.5 -49t-39 -75.5t-10.5 -97h-92q0 164 85 247.5t269 83.5q193 0 286 -100t93 -344v-322q0 -246 -93 -349t-286 -103q-104 0 -175 26.5t-114 82t-61 140.5t-18 203zM199 449 q0 -86 10 -155t40 -116t84 -72.5t144 -25.5q82 0 136.5 21.5t87 65.5t45 112.5t12.5 162.5v88h-559v-81z" />
<glyph unicode="&#x2c6;" horiz-adv-x="727" d="M59 1360v8l256 234h64l256 -234v-8h-109l-180 162l-178 -162h-109z" />
<glyph unicode="&#x2da;" horiz-adv-x="655" d="M111 1378q0 51 18 91t49 68t70 41t82 13q41 0 81 -13t70.5 -40t50 -66.5t19.5 -91.5q0 -53 -18.5 -93t-49 -66.5t-70.5 -41t-85 -14.5q-90 0 -154.5 55.5t-62.5 157.5zM188 1378.5q0 -51.5 35 -94.5t107 -43q74 0 108.5 43t34.5 94.5t-36.5 94.5t-106.5 43 q-72 0 -107 -43t-35 -94.5z" />
<glyph unicode="&#x2dc;" horiz-adv-x="731" d="M90 1468q14 35 37 64t53.5 45t68.5 18t83 -16l92 -41q18 -6 36.5 -11t36 -3t32 14t24.5 41l78 -18q-10 -49 -34 -79t-54.5 -41t-67.5 -8t-72 17l-90 41q-98 43 -147 -53z" />
<glyph unicode="&#x2000;" horiz-adv-x="962" />
<glyph unicode="&#x2001;" horiz-adv-x="1925" />
<glyph unicode="&#x2002;" horiz-adv-x="962" />
<glyph unicode="&#x2003;" horiz-adv-x="1925" />
<glyph unicode="&#x2004;" horiz-adv-x="641" />
<glyph unicode="&#x2005;" horiz-adv-x="481" />
<glyph unicode="&#x2006;" horiz-adv-x="320" />
<glyph unicode="&#x2007;" horiz-adv-x="320" />
<glyph unicode="&#x2008;" horiz-adv-x="240" />
<glyph unicode="&#x2009;" horiz-adv-x="385" />
<glyph unicode="&#x200a;" horiz-adv-x="106" />
<glyph unicode="&#x2010;" d="M125 598v92h592v-92h-592z" />
<glyph unicode="&#x2011;" d="M125 598v92h592v-92h-592z" />
<glyph unicode="&#x2012;" d="M125 598v92h592v-92h-592z" />
<glyph unicode="&#x2013;" horiz-adv-x="1073" d="M72 580v88h909v-88h-909z" />
<glyph unicode="&#x2014;" horiz-adv-x="1347" d="M72 580v88h1175v-88h-1175z" />
<glyph unicode="&#x2018;" horiz-adv-x="382" d="M86 1239l121 342h86l-105 -342h-102z" />
<glyph unicode="&#x2019;" horiz-adv-x="356" d="M84 1237l104 342h103l-121 -342h-86z" />
<glyph unicode="&#x201a;" horiz-adv-x="317" d="M18 -203q35 18 56.5 41t33 54.5t14.5 77.5t-1 112h102q0 -78 -5 -130t-22.5 -91t-50 -68t-88.5 -61z" />
<glyph unicode="&#x201c;" horiz-adv-x="546" d="M90 1239l117 342h84l-105 -342h-96zM293 1239l117 342h84l-103 -342h-98z" />
<glyph unicode="&#x201d;" horiz-adv-x="544" d="M88 1237l102 342h99l-117 -342h-84zM291 1237l104 342h97l-117 -342h-84z" />
<glyph unicode="&#x201e;" horiz-adv-x="587" d="M18 -203q35 18 57.5 41t36 54.5t17.5 77.5t0 112h94q0 -78 -5 -130t-22.5 -91t-50 -68t-88.5 -61zM258 -203q35 18 57.5 41t34.5 54.5t16.5 77.5t0.5 112h96q0 -78 -5 -130t-22.5 -91t-50.5 -68t-88 -61z" />
<glyph unicode="&#x2026;" horiz-adv-x="1011" d="M104 68q0 37 24 55t52.5 18t52 -18.5t23.5 -54.5q0 -37 -23.5 -55.5t-52 -18.5t-52.5 18.5t-24 55.5zM416 68q0 37 23.5 55t52 18t52 -18.5t23.5 -54.5q0 -37 -23.5 -55.5t-52 -18.5t-52 18.5t-23.5 55.5zM727 68q0 37 23.5 55t52 18t52.5 -18.5t24 -54.5 q0 -37 -24 -55.5t-52.5 -18.5t-52 18.5t-23.5 55.5z" />
<glyph unicode="&#x202f;" horiz-adv-x="385" />
<glyph unicode="&#x2039;" horiz-adv-x="565" d="M76 657l282 451h109l-281 -451l281 -452h-109z" />
<glyph unicode="&#x203a;" horiz-adv-x="565" d="M86 205l281 452l-281 451h109l282 -451l-282 -452h-109z" />
<glyph unicode="&#x205f;" horiz-adv-x="481" />
<glyph unicode="&#x20ac;" horiz-adv-x="1060" d="M68 608v92h139v160h-139v92h139v135q0 172 69.5 289t178 172.5t241.5 46t260 -89.5l-47 -75q-111 68 -218 73.5t-192 -40.5t-137.5 -141t-52.5 -230v-140h439v-92h-439v-160h439v-92h-439v-125q0 -139 45 -235t127 -142.5t199 -41t260 70.5l43 -88q-150 -66 -289 -76 t-247.5 41t-174 168t-65.5 307v121h-139z" />
<glyph unicode="&#x2122;" horiz-adv-x="929" d="M41 1540v43h309v-43h-131v-584h-47v584h-131zM449 954v631h79l107 -411l106 411h82v-631h-47v574l-117 -451h-47l-116 449v-572h-47z" />
<glyph unicode="&#x25fc;" horiz-adv-x="1187" d="M0 0v1188h1188v-1188h-1188z" />
</font>
</defs>
</svg>
